<?xml version="1.0" encoding="UTF-8"?>
<svg xmlns="http://www.w3.org/2000/svg" xmlns:xlink="http://www.w3.org/1999/xlink" width="1500pt" height="1500pt" viewBox="0 0 1500 1500" version="1.1">
<g id="surface1">
<path style=" stroke:none;fill-rule:nonzero;fill:#58B8FE;fill-opacity:1;" d="M 750 187.5 C 439.820313 187.5 187.5 439.820313 187.5 750 C 187.5 990.234375 338.195313 1195.496094 550.78125 1275.878906 L 594.726563 1293.457031 L 612.304688 1249.511719 L 728.027344 941.894531 L 744.140625 897.949219 L 700.195313 881.835938 C 647.09375 861.695313 609.375 810.609375 609.375 750 C 609.375 671.8125 671.8125 609.375 750 609.375 C 828.1875 609.375 890.625 671.8125 890.625 750 C 890.625 810.609375 852.90625 861.695313 799.804688 881.835938 L 755.859375 897.949219 L 771.972656 941.894531 L 887.695313 1249.511719 L 905.273438 1293.457031 L 949.21875 1275.878906 C 1161.804688 1195.496094 1312.5 990.234375 1312.5 750 C 1312.5 439.820313 1060.179688 187.5 750 187.5 Z M 750 281.25 C 1009.460938 281.25 1218.75 490.539063 1218.75 750 C 1218.75 933.839844 1110.167969 1087.648438 956.542969 1164.550781 L 871.582031 940.429688 C 936.402344 898.683594 984.375 832.398438 984.375 750 C 984.375 621.09375 878.90625 515.625 750 515.625 C 621.09375 515.625 515.625 621.09375 515.625 750 C 515.625 832.398438 563.597656 898.683594 628.417969 940.429688 L 543.457031 1164.550781 C 389.832031 1087.648438 281.25 933.839844 281.25 750 C 281.25 490.539063 490.539063 281.25 750 281.25 Z "/>
</g>
</svg>
