<?xml version="1.0" encoding="UTF-8"?>
<svg xmlns="http://www.w3.org/2000/svg" xmlns:xlink="http://www.w3.org/1999/xlink" width="50pt" height="50pt" viewBox="0 0 50 50" version="1.1">
<g id="surface1">
<path style=" stroke:none;fill-rule:nonzero;fill:#58B8FE;fill-opacity:1;" d="M 8 2 C 7.449219 2 7 2.449219 7 3 L 7 16 L 9 16 L 9 4 L 41 4 L 41 46 L 9 46 L 9 39 L 7 39 L 7 47 C 7 47.550781 7.449219 48 8 48 L 42 48 C 42.550781 48 43 47.550781 43 47 L 43 3 C 43 2.449219 42.550781 2 42 2 Z M 16 10 L 16 12 L 34 12 L 34 10 Z M 16 16 L 16 18 L 34 18 L 34 16 Z M 11 18 L 11 24 L 3 24 L 3 31 L 11 31 L 11 37 L 23.667969 27.5 Z M 13 22 L 20.332031 27.5 L 13 33 L 13 29 L 5 29 L 5 26 L 13 26 Z M 27 23 C 26.449219 23 26 23.449219 26 24 L 26 31 C 26 31.550781 26.449219 32 27 32 L 33 32 C 33.550781 32 34 31.550781 34 31 L 34 24 C 34 23.449219 33.550781 23 33 23 Z M 28 25 L 32 25 L 32 30 L 28 30 Z M 16 37 L 16 39 L 34 39 L 34 37 Z "/>
</g>
</svg>
