<?xml version="1.0" encoding="UTF-8"?>
<svg xmlns="http://www.w3.org/2000/svg" xmlns:xlink="http://www.w3.org/1999/xlink" width="104pt" height="104pt" viewBox="0 0 104 104" version="1.1">
<g id="surface1">
<path style=" stroke:none;fill-rule:nonzero;fill:#FFFFFF;fill-opacity:1;" d="M 78.875 8.25 C 77.3125 8.296875 75.75 8.625 74.25 9.125 C 68.25 11.140625 63.109375 15.765625 58 20.875 L 25 53.875 C 22.0625 56.8125 19.8125 60.390625 19.125 64.625 C 18.4375 68.859375 19.71875 73.703125 23.375 77.375 C 27.125 81.125 32.140625 82.25 36.375 81.5 C 40.609375 80.75 44.15625 78.46875 46.875 75.75 L 83.125 39.5 C 84.3125 38.53125 84.859375 36.984375 84.515625 35.484375 C 84.171875 34 83 32.828125 81.515625 32.484375 C 80.015625 32.140625 78.46875 32.6875 77.5 33.875 L 41.25 70.125 C 39.53125 71.84375 37.15625 73.234375 35 73.625 C 32.84375 74.015625 31.015625 73.765625 29 71.75 C 26.90625 69.65625 26.671875 67.890625 27 65.875 C 27.328125 63.859375 28.59375 61.53125 30.625 59.5 L 63.625 26.5 C 68.453125 21.671875 73.09375 17.984375 76.75 16.75 C 80.40625 15.515625 83.03125 15.78125 87.25 20 C 90.40625 23.140625 93.75 25.984375 94.625 28.875 C 95.0625 30.3125 95.0625 31.75 94.125 34.125 C 93.1875 36.5 91.140625 39.734375 87.25 43.625 C 70.65625 60.21875 57.921875 72.953125 51 79.875 C 44.859375 86.015625 39.046875 90.125 33.875 91.25 C 28.703125 92.375 23.796875 91.171875 17.375 84.75 C 10.953125 78.328125 8.703125 72.09375 9.375 65.625 C 10.046875 59.15625 13.984375 52.140625 21.25 44.875 C 30.03125 36.09375 48.375 19.25 48.375 19.25 C 49.59375 18.34375 50.1875 16.8125 49.90625 15.3125 C 49.625 13.8125 48.515625 12.609375 47.0625 12.203125 C 45.59375 11.78125 44.015625 12.25 43 13.375 C 43 13.375 24.640625 30 15.5 39.125 C 7.40625 47.21875 2.3125 55.90625 1.375 64.875 C 0.4375 73.84375 4.0625 82.6875 11.75 90.375 C 19.421875 98.0625 27.71875 100.8125 35.5 99.125 C 43.28125 97.4375 50.015625 92.109375 56.625 85.5 C 63.546875 78.578125 76.28125 65.84375 92.875 49.25 C 97.28125 44.84375 100.125 40.921875 101.625 37.125 C 103.125 33.328125 103.1875 29.59375 102.25 26.5 C 100.390625 20.3125 95.375 16.859375 92.875 14.375 C 90.015625 11.515625 86.84375 9.703125 83.625 8.875 C 82.015625 8.453125 80.4375 8.203125 78.875 8.25 Z "/>
</g>
</svg>
