<?xml version="1.0" encoding="UTF-8"?>
<svg xmlns="http://www.w3.org/2000/svg" xmlns:xlink="http://www.w3.org/1999/xlink" width="50pt" height="50pt" viewBox="0 0 50 50" version="1.1">
<g id="surface1">
<path style=" stroke:none;fill-rule:nonzero;fill:#58B8FE;fill-opacity:1;" d="M 40 28.050781 L 40 14.601563 L 25.398438 0 L 4 0 L 4 48 L 32.695313 48 C 34.480469 49.257813 36.652344 50 39 50 C 45.066406 50 50 45.066406 50 39 C 50 33.273438 45.597656 28.558594 40 28.050781 Z M 25 2.398438 L 37.601563 15 L 25 15 Z M 39 30 C 39.339844 30 39.671875 30.023438 40 30.058594 C 41.730469 30.253906 43.316406 30.9375 44.609375 31.976563 L 31.976563 44.609375 C 30.742188 43.070313 30 41.121094 30 39 C 30 34.035156 34.035156 30 39 30 Z M 40 47.941406 L 40 48 L 39 48 C 36.878906 48 34.929688 47.257813 33.390625 46.023438 L 46.023438 33.390625 C 47.257813 34.929688 48 36.878906 48 39 C 48 43.625 44.492188 47.441406 40 47.941406 Z "/>
</g>
</svg>
