<?xml version="1.0" encoding="UTF-8"?>
<svg xmlns="http://www.w3.org/2000/svg" xmlns:xlink="http://www.w3.org/1999/xlink" width="50pt" height="50pt" viewBox="0 0 50 50" version="1.1">
<g id="surface1">
<path style=" stroke:none;fill-rule:nonzero;fill:#FBCE00;fill-opacity:1;" d="M 21 0 C 8.441406 0 0 4.652344 0 9 C 0 13.34375 8.441406 18 21 18 C 33.5625 18 42 13.34375 42 9 C 42 4.652344 33.5625 0 21 0 Z M 0 13.609375 L 0 19.152344 C 0 23.425781 8.445313 28 21.015625 28 C 33.589844 28 42 23.425781 42 19.152344 L 42 13.609375 C 38.324219 17.363281 30.433594 20 21.015625 20 C 11.597656 20 3.675781 17.363281 0 13.609375 Z M 0 23.910156 L 0 29.195313 C 0 33.46875 8.445313 38 21.015625 38 C 24.503906 38 27.65625 37.683594 30.417969 37.082031 C 30.191406 37.828125 30.058594 38.609375 30.011719 39.417969 C 27.257813 39.953125 24.230469 40 21.015625 40 C 11.597656 40 3.675781 37.707031 0 33.953125 L 0 39.152344 C 0 43.425781 8.445313 48 21.015625 48 C 25.382813 48 29.238281 47.4375 32.425781 46.539063 C 34.265625 48.664063 36.976563 50.015625 40 50.015625 C 45.523438 50.015625 50.019531 45.523438 50.019531 40 C 50.019531 39.4375 49.5625 38.980469 49 38.980469 C 48.4375 38.980469 47.980469 39.4375 47.980469 40 C 47.980469 44.402344 44.402344 47.980469 40 47.980469 C 35.597656 47.980469 32.019531 44.402344 32.019531 40 C 32.019531 35.597656 35.597656 32.019531 40 32.019531 C 43.199219 32.019531 45.109375 34.019531 45.859375 35 L 42.320313 35 C 41.765625 35 41.320313 35.445313 41.320313 36 C 41.320313 36.554688 41.765625 37 42.320313 37 L 49 37 L 49 30.320313 C 49 29.765625 48.554688 29.320313 48 29.320313 C 47.445313 29.320313 47 29.765625 47 30.320313 L 47 33.199219 C 46.023438 32.109375 44.332031 30.679688 41.871094 30.171875 C 41.96875 29.847656 42 29.519531 42 29.195313 L 42 23.910156 C 38.324219 27.664063 30.433594 30 21.015625 30 C 11.597656 30 3.675781 27.664063 0 23.910156 Z "/>
</g>
</svg>
