<?xml version="1.0" encoding="UTF-8"?>
<svg xmlns="http://www.w3.org/2000/svg" xmlns:xlink="http://www.w3.org/1999/xlink" width="1500pt" height="1500pt" viewBox="0 0 1500 1500" version="1.1">
<g id="surface1">
<path style=" stroke:none;fill-rule:nonzero;fill:#58B8FE;fill-opacity:1;" d="M 854.566406 0 C 827.074219 5.183594 807.242188 29.523438 807.691406 57.691406 L 807.691406 288.460938 C 807.691406 320.238281 833.609375 346.152344 865.382813 346.152344 L 1269.230469 346.152344 C 1301.007813 346.152344 1326.921875 320.238281 1326.921875 288.460938 L 1326.921875 57.691406 C 1326.921875 25.917969 1301.007813 0 1269.230469 0 L 865.382813 0 C 863.582031 0 861.777344 0 859.976563 0 C 858.171875 0 856.371094 0 854.566406 0 Z M 923.078125 115.382813 L 1211.539063 115.382813 L 1211.539063 230.769531 L 923.078125 230.769531 Z M 277.644531 173.078125 C 250.148438 178.261719 230.320313 202.597656 230.769531 230.769531 L 230.769531 403.847656 L 191.105469 403.847656 C 150.765625 403.847656 121.242188 433.367188 115.382813 479.566406 L 0 1153.847656 L 1500 1153.847656 L 1384.617188 479.566406 C 1373.121094 433.367188 1349.234375 403.847656 1308.894531 403.847656 L 750 403.847656 L 750 230.769531 C 750 198.992188 724.082031 173.078125 692.308594 173.078125 L 288.460938 173.078125 C 286.660156 173.078125 284.855469 173.078125 283.054688 173.078125 C 281.25 173.078125 279.445313 173.078125 277.644531 173.078125 Z M 346.152344 288.460938 L 634.617188 288.460938 L 634.617188 692.308594 L 346.152344 692.308594 Z M 403.847656 346.152344 L 403.847656 403.847656 L 576.921875 403.847656 L 576.921875 346.152344 Z M 403.847656 461.539063 L 403.847656 519.230469 L 576.921875 519.230469 L 576.921875 461.539063 Z M 894.230469 519.230469 L 1269.230469 519.230469 C 1286.582031 519.230469 1303.484375 530.5 1303.484375 553.484375 L 1316.105469 658.054688 C 1327.597656 675.40625 1310.019531 692.308594 1292.667969 692.308594 L 899.640625 692.308594 C 882.285156 692.308594 865.382813 675.40625 865.382813 658.054688 L 865.382813 553.484375 C 865.382813 530.5 876.878906 519.230469 894.230469 519.230469 Z M 403.847656 576.921875 L 403.847656 634.617188 L 576.921875 634.617188 L 576.921875 576.921875 Z M 888.820313 744.589844 L 951.921875 744.589844 C 969.277344 744.589844 980.769531 756.085938 980.769531 773.4375 L 980.769531 836.539063 C 980.769531 853.890625 969.277344 865.382813 951.921875 865.382813 L 888.820313 865.382813 C 871.46875 865.382813 859.976563 853.890625 859.976563 836.539063 L 859.976563 773.4375 C 859.976563 756.085938 871.46875 744.589844 888.820313 744.589844 Z M 1061.898438 744.589844 L 1125 744.589844 C 1142.351563 744.589844 1153.847656 756.085938 1153.847656 773.4375 L 1153.847656 836.539063 C 1153.847656 853.890625 1142.351563 865.382813 1125 865.382813 L 1061.898438 865.382813 C 1044.546875 865.382813 1033.054688 853.890625 1033.054688 836.539063 L 1033.054688 773.4375 C 1033.054688 756.085938 1044.546875 744.589844 1061.898438 744.589844 Z M 1234.976563 744.589844 L 1298.078125 744.589844 C 1315.429688 744.589844 1326.921875 756.085938 1326.921875 773.4375 L 1326.921875 836.539063 C 1326.921875 853.890625 1315.429688 865.382813 1298.078125 865.382813 L 1234.976563 865.382813 C 1217.625 865.382813 1206.128906 853.890625 1206.128906 836.539063 L 1206.128906 773.4375 C 1206.128906 756.085938 1217.625 744.589844 1234.976563 744.589844 Z M 888.820313 917.667969 L 951.921875 917.667969 C 969.277344 917.667969 980.769531 929.160156 980.769531 946.515625 L 980.769531 1009.617188 C 980.769531 1026.96875 969.277344 1038.460938 951.921875 1038.460938 L 888.820313 1038.460938 C 871.46875 1038.460938 859.976563 1026.96875 859.976563 1009.617188 L 859.976563 946.515625 C 859.976563 929.160156 871.46875 917.667969 888.820313 917.667969 Z M 1061.898438 917.667969 L 1125 917.667969 C 1142.351563 917.667969 1153.847656 929.160156 1153.847656 946.515625 L 1153.847656 1009.617188 C 1153.847656 1026.96875 1142.351563 1038.460938 1125 1038.460938 L 1061.898438 1038.460938 C 1044.546875 1038.460938 1033.054688 1026.96875 1033.054688 1009.617188 L 1033.054688 946.515625 C 1033.054688 929.160156 1044.546875 917.667969 1061.898438 917.667969 Z M 1234.976563 917.667969 L 1298.078125 917.667969 C 1315.429688 917.667969 1326.921875 929.160156 1326.921875 946.515625 L 1326.921875 1009.617188 C 1326.921875 1026.96875 1315.429688 1038.460938 1298.078125 1038.460938 L 1234.976563 1038.460938 C 1217.625 1038.460938 1206.128906 1026.96875 1206.128906 1009.617188 L 1206.128906 946.515625 C 1206.128906 929.160156 1217.625 917.667969 1234.976563 917.667969 Z M 0 1211.539063 L 0 1424.277344 C 0 1464.617188 35.382813 1500 75.722656 1500 L 1418.871094 1500 C 1459.210938 1500 1494.589844 1464.617188 1494.589844 1424.277344 L 1494.589844 1211.539063 Z M 750 1269.230469 C 784.707031 1269.230469 807.691406 1292.21875 807.691406 1326.921875 C 807.691406 1361.628906 784.707031 1384.617188 750 1384.617188 C 715.292969 1384.617188 692.308594 1361.628906 692.308594 1326.921875 C 692.308594 1292.21875 715.292969 1269.230469 750 1269.230469 Z "/>
</g>
</svg>
