<?xml version="1.0" encoding="UTF-8"?>
<svg xmlns="http://www.w3.org/2000/svg" xmlns:xlink="http://www.w3.org/1999/xlink" width="48pt" height="48pt" viewBox="0 0 48 48" version="1.1">
<g id="surface1">
<path style=" stroke:none;fill-rule:nonzero;fill:#58B8FE;fill-opacity:1;" d="M 24 0 C 10.765625 0 0 10.765625 0 24 C 0 37.234375 10.765625 48 24 48 C 37.234375 48 48 37.234375 48 24 C 48 10.765625 37.234375 0 24 0 Z M 24 4 C 35.070313 4 44 12.929688 44 24 C 44 28.796875 42.296875 33.1875 39.5 36.625 L 11.375 8.5 C 14.8125 5.703125 19.203125 4 24 4 Z M 8.5 11.375 L 36.625 39.5 C 33.1875 42.296875 28.796875 44 24 44 C 12.929688 44 4 35.070313 4 24 C 4 19.203125 5.703125 14.8125 8.5 11.375 Z "/>
</g>
</svg>
