<?xml version="1.0" encoding="UTF-8"?>
<svg xmlns="http://www.w3.org/2000/svg" xmlns:xlink="http://www.w3.org/1999/xlink" width="50pt" height="50pt" viewBox="0 0 50 50" version="1.1">
<g id="surface1">
<path style=" stroke:none;fill-rule:nonzero;fill:#58B8FE;fill-opacity:1;" d="M 9.375 6.25 C 7.65625 6.25 6.25 7.65625 6.25 9.375 L 6.25 23.125 C 6.25 24.84375 7.65625 26.25 9.375 26.25 L 13.75 26.25 L 13.75 40.625 C 13.75 42.34375 15.15625 43.75 16.875 43.75 L 40.625 43.75 C 42.34375 43.75 43.75 42.34375 43.75 40.625 L 43.75 26.875 C 43.75 25.15625 42.34375 23.75 40.625 23.75 L 36.1875 23.75 C 36.226563 23.546875 36.25 23.339844 36.25 23.125 L 36.25 9.375 C 36.25 7.65625 34.84375 6.25 33.125 6.25 Z M 9.375 7.5 L 33.125 7.5 C 34.167969 7.5 35 8.332031 35 9.375 L 35 11.25 L 7.5 11.25 L 7.5 9.375 C 7.5 8.332031 8.332031 7.5 9.375 7.5 Z M 40.625 10.625 L 37.5 13.125 L 40.625 15.625 L 40.625 13.75 L 43.125 13.75 C 44.167969 13.75 45 14.582031 45 15.625 L 45 18.125 C 44.996094 18.351563 45.117188 18.558594 45.308594 18.671875 C 45.503906 18.789063 45.746094 18.789063 45.941406 18.671875 C 46.132813 18.558594 46.253906 18.351563 46.25 18.125 L 46.25 15.625 C 46.25 13.90625 44.84375 12.5 43.125 12.5 L 40.625 12.5 Z M 7.5 13.75 L 35 13.75 L 35 23.125 C 35 24.167969 34.167969 25 33.125 25 L 9.375 25 C 8.332031 25 7.5 24.167969 7.5 23.125 Z M 10 21.875 C 9.65625 21.875 9.375 22.15625 9.375 22.5 C 9.375 22.84375 9.65625 23.125 10 23.125 C 10.34375 23.125 10.625 22.84375 10.625 22.5 C 10.625 22.15625 10.34375 21.875 10 21.875 Z M 12.5 21.875 C 12.15625 21.875 11.875 22.15625 11.875 22.5 C 11.875 22.84375 12.15625 23.125 12.5 23.125 C 12.84375 23.125 13.125 22.84375 13.125 22.5 C 13.125 22.15625 12.84375 21.875 12.5 21.875 Z M 15 21.875 C 14.65625 21.875 14.375 22.15625 14.375 22.5 C 14.375 22.84375 14.65625 23.125 15 23.125 C 15.34375 23.125 15.625 22.84375 15.625 22.5 C 15.625 22.15625 15.34375 21.875 15 21.875 Z M 17.5 21.875 C 17.15625 21.875 16.875 22.15625 16.875 22.5 C 16.875 22.84375 17.15625 23.125 17.5 23.125 C 17.84375 23.125 18.125 22.84375 18.125 22.5 C 18.125 22.15625 17.84375 21.875 17.5 21.875 Z M 20 21.875 C 19.65625 21.875 19.375 22.15625 19.375 22.5 C 19.375 22.84375 19.65625 23.125 20 23.125 C 20.34375 23.125 20.625 22.84375 20.625 22.5 C 20.625 22.15625 20.34375 21.875 20 21.875 Z M 22.5 21.875 C 22.15625 21.875 21.875 22.15625 21.875 22.5 C 21.875 22.84375 22.15625 23.125 22.5 23.125 C 22.84375 23.125 23.125 22.84375 23.125 22.5 C 23.125 22.15625 22.84375 21.875 22.5 21.875 Z M 25 21.875 C 24.65625 21.875 24.375 22.15625 24.375 22.5 C 24.375 22.84375 24.65625 23.125 25 23.125 C 25.34375 23.125 25.625 22.84375 25.625 22.5 C 25.625 22.15625 25.34375 21.875 25 21.875 Z M 27.5 21.875 C 27.15625 21.875 26.875 22.15625 26.875 22.5 C 26.875 22.84375 27.15625 23.125 27.5 23.125 C 27.84375 23.125 28.125 22.84375 28.125 22.5 C 28.125 22.15625 27.84375 21.875 27.5 21.875 Z M 30 21.875 C 29.65625 21.875 29.375 22.15625 29.375 22.5 C 29.375 22.84375 29.65625 23.125 30 23.125 C 30.34375 23.125 30.625 22.84375 30.625 22.5 C 30.625 22.15625 30.34375 21.875 30 21.875 Z M 32.5 21.875 C 32.15625 21.875 31.875 22.15625 31.875 22.5 C 31.875 22.84375 32.15625 23.125 32.5 23.125 C 32.84375 23.125 33.125 22.84375 33.125 22.5 C 33.125 22.15625 32.84375 21.875 32.5 21.875 Z M 35.625 24.976563 L 35.625 25 L 40.625 25 C 41.667969 25 42.5 25.832031 42.5 26.875 L 42.5 28.75 L 15 28.75 L 15 26.25 L 33.125 26.25 C 34.148438 26.25 35.054688 25.746094 35.625 24.976563 Z M 4.367188 31.242188 C 4.019531 31.246094 3.746094 31.53125 3.75 31.875 L 3.75 34.375 C 3.75 36.09375 5.15625 37.5 6.875 37.5 L 9.375 37.5 L 9.375 39.375 L 12.5 36.875 L 9.375 34.375 L 9.375 36.25 L 6.875 36.25 C 5.832031 36.25 5 35.417969 5 34.375 L 5 31.875 C 5.003906 31.707031 4.9375 31.542969 4.816406 31.425781 C 4.695313 31.304688 4.535156 31.238281 4.363281 31.242188 Z M 15 31.25 L 42.5 31.25 L 42.5 40.625 C 42.5 41.667969 41.667969 42.5 40.625 42.5 L 16.875 42.5 C 15.832031 42.5 15 41.667969 15 40.625 Z M 17.5 39.375 C 17.15625 39.375 16.875 39.65625 16.875 40 C 16.875 40.34375 17.15625 40.625 17.5 40.625 C 17.84375 40.625 18.125 40.34375 18.125 40 C 18.125 39.65625 17.84375 39.375 17.5 39.375 Z M 20 39.375 C 19.65625 39.375 19.375 39.65625 19.375 40 C 19.375 40.34375 19.65625 40.625 20 40.625 C 20.34375 40.625 20.625 40.34375 20.625 40 C 20.625 39.65625 20.34375 39.375 20 39.375 Z M 22.5 39.375 C 22.15625 39.375 21.875 39.65625 21.875 40 C 21.875 40.34375 22.15625 40.625 22.5 40.625 C 22.84375 40.625 23.125 40.34375 23.125 40 C 23.125 39.65625 22.84375 39.375 22.5 39.375 Z M 25 39.375 C 24.65625 39.375 24.375 39.65625 24.375 40 C 24.375 40.34375 24.65625 40.625 25 40.625 C 25.34375 40.625 25.625 40.34375 25.625 40 C 25.625 39.65625 25.34375 39.375 25 39.375 Z M 27.5 39.375 C 27.15625 39.375 26.875 39.65625 26.875 40 C 26.875 40.34375 27.15625 40.625 27.5 40.625 C 27.84375 40.625 28.125 40.34375 28.125 40 C 28.125 39.65625 27.84375 39.375 27.5 39.375 Z M 30 39.375 C 29.65625 39.375 29.375 39.65625 29.375 40 C 29.375 40.34375 29.65625 40.625 30 40.625 C 30.34375 40.625 30.625 40.34375 30.625 40 C 30.625 39.65625 30.34375 39.375 30 39.375 Z M 32.5 39.375 C 32.15625 39.375 31.875 39.65625 31.875 40 C 31.875 40.34375 32.15625 40.625 32.5 40.625 C 32.84375 40.625 33.125 40.34375 33.125 40 C 33.125 39.65625 32.84375 39.375 32.5 39.375 Z M 35 39.375 C 34.65625 39.375 34.375 39.65625 34.375 40 C 34.375 40.34375 34.65625 40.625 35 40.625 C 35.34375 40.625 35.625 40.34375 35.625 40 C 35.625 39.65625 35.34375 39.375 35 39.375 Z M 37.5 39.375 C 37.15625 39.375 36.875 39.65625 36.875 40 C 36.875 40.34375 37.15625 40.625 37.5 40.625 C 37.84375 40.625 38.125 40.34375 38.125 40 C 38.125 39.65625 37.84375 39.375 37.5 39.375 Z M 40 39.375 C 39.65625 39.375 39.375 39.65625 39.375 40 C 39.375 40.34375 39.65625 40.625 40 40.625 C 40.34375 40.625 40.625 40.34375 40.625 40 C 40.625 39.65625 40.34375 39.375 40 39.375 Z "/>
</g>
</svg>
