<?xml version="1.0" encoding="UTF-8"?>
<svg xmlns="http://www.w3.org/2000/svg" xmlns:xlink="http://www.w3.org/1999/xlink" width="1500pt" height="1500pt" viewBox="0 0 1500 1500" version="1.1">
<g id="surface1">
<path style=" stroke:none;fill-rule:nonzero;fill:#FBCE00;fill-opacity:1;" d="M 634.617188 10.816406 C 290.039063 10.816406 10.816406 134.992188 10.816406 288.460938 C 10.816406 441.933594 290.039063 566.105469 634.617188 566.105469 C 762.621094 566.105469 881.609375 548.753906 980.769531 519.230469 L 1027.644531 484.976563 C 1054.238281 465.144531 1086.238281 457.257813 1117.789063 463.339844 C 1205.226563 415.566406 1258.414063 354.941406 1258.414063 288.460938 C 1258.414063 134.992188 979.191406 10.816406 634.617188 10.816406 Z M 10.816406 364.183594 L 10.816406 576.921875 C 10.816406 730.394531 290.039063 854.566406 634.617188 854.566406 C 641.152344 854.566406 647.910156 854.792969 654.445313 854.566406 C 681.039063 825.269531 720.703125 810.847656 760.816406 818.507813 L 775.242188 820.3125 C 759.691406 800.253906 750 775.917969 750 750 C 750 713.71875 767.804688 679.914063 796.875 658.054688 L 836.539063 627.402344 C 772.988281 637.09375 705.605469 641.828125 634.617188 641.828125 C 290.039063 641.828125 10.816406 517.652344 10.816406 364.183594 Z M 1258.414063 364.183594 C 1258.414063 413.085938 1230.46875 459.511719 1180.890625 499.398438 C 1200.269531 520.359375 1211.539063 547.402344 1211.539063 576.921875 L 1211.539063 600.359375 C 1225.511719 603.515625 1239.484375 608.699219 1253.003906 612.980469 C 1256.609375 600.8125 1258.414063 589.542969 1258.414063 576.921875 C 1258.414063 520.582031 1258.414063 461.3125 1258.414063 364.183594 Z M 1096.152344 576.921875 L 865.382813 750 L 1096.152344 923.078125 L 1096.152344 804.085938 C 1236.554688 804.085938 1360.953125 906.398438 1384.617188 1049.277344 C 1410.984375 1208.382813 1302.132813 1358.25 1143.027344 1384.617188 C 983.925781 1410.984375 834.058594 1303.9375 807.691406 1144.832031 C 796.199219 1075.644531 811.296875 1008.488281 843.75 951.921875 L 739.183594 932.089844 C 707.179688 1001.277344 695.011719 1080.152344 708.535156 1161.058594 C 743.914063 1375.148438 946.964844 1519.382813 1161.058594 1483.773438 C 1375.148438 1448.167969 1519.15625 1245.34375 1483.773438 1031.25 C 1451.773438 838.792969 1285.007813 702.898438 1096.152344 703.125 Z M 10.816406 652.644531 L 10.816406 865.382813 C 10.816406 1012.320313 267.050781 1131.308594 591.347656 1141.226563 C 584.8125 1069.335938 592.921875 998.347656 616.585938 930.289063 C 280.347656 926.007813 10.816406 803.410156 10.816406 652.644531 Z M 10.816406 941.105469 L 10.816406 1153.847656 C 10.816406 1307.316406 290.039063 1431.492188 634.617188 1431.492188 C 660.757813 1431.492188 686.898438 1431.039063 712.140625 1429.6875 C 660.984375 1370.417969 621.769531 1298.753906 602.164063 1218.75 C 272.460938 1211.3125 10.816406 1089.617188 10.816406 941.105469 Z "/>
</g>
</svg>
