<?xml version="1.0" encoding="UTF-8"?>
<svg xmlns="http://www.w3.org/2000/svg" xmlns:xlink="http://www.w3.org/1999/xlink" width="512pt" height="512pt" viewBox="0 0 512 512" version="1.1">
<g id="surface1">
<path style=" stroke:none;fill-rule:nonzero;fill:#00223B;fill-opacity:1;" d="M 138.5 48 C 130.125 48 121.875 51 115 56.5 L 114 57 L 113.5 57.5 L 63.5 109 L 64 109.5 C 48.5625 123.75 43.8125 145.0625 50.5 163.5 C 50.5625 163.625 50.4375 163.875 50.5 164 C 64.0625 202.8125 98.75 277.75 166.5 345.5 C 234.5 413.5 310.4375 446.8125 348 461.5 L 348.5 461.5 C 367.9375 468 389 463.375 404 450.5 L 454.5 400 C 467.75 386.75 467.75 363.75 454.5 350.5 L 389.5 285.5 L 389 284.5 C 375.75 271.25 352.25 271.25 339 284.5 L 307 316.5 C 295.4375 310.9375 267.875 296.6875 241.5 271.5 C 215.3125 246.5 201.9375 217.75 197 206.5 L 229 174.5 C 242.4375 161.0625 242.6875 138.6875 228.5 125.5 L 229 125 L 227.5 123.5 L 163.5 57.5 L 163 57 L 162 56.5 C 155.125 51 146.875 48 138.5 48 Z M 138.5 80 C 139.6875 80 140.875 80.5625 142 81.5 L 206 147 L 207.5 148.5 C 207.375 148.375 208.4375 150.0625 206.5 152 L 166.5 192 L 159 199 L 162.5 209 C 162.5 209 180.875 258.1875 219.5 295 L 223 298 C 260.1875 331.9375 304 350.5 304 350.5 L 314 355 L 361.5 307.5 C 364.25 304.75 363.75 304.75 366.5 307.5 L 432 373 C 434.75 375.75 434.75 374.75 432 377.5 L 383 426.5 C 375.625 432.8125 367.8125 434.125 358.5 431 C 322.25 416.75 251.8125 385.8125 189 323 C 125.6875 259.6875 92.625 187.875 80.5 153 C 78.0625 146.5 79.8125 136.875 85.5 132 L 86.5 131 L 135 81.5 C 136.125 80.5625 137.3125 80 138.5 80 Z "/>
</g>
</svg>
