<?xml version="1.0" encoding="UTF-8"?>
<svg xmlns="http://www.w3.org/2000/svg" xmlns:xlink="http://www.w3.org/1999/xlink" width="350pt" height="350pt" viewBox="0 0 350 350" version="1.1">
<g id="surface1">
<path style=" stroke:none;fill-rule:nonzero;fill:#BF360C;fill-opacity:1;" d="M 116.667969 109.375 L 233.332031 109.375 L 233.332031 240.625 L 116.667969 240.625 Z "/>
<path style=" stroke:none;fill-rule:nonzero;fill:#BF360C;fill-opacity:1;" d="M 116.667969 109.375 L 233.332031 109.375 L 233.332031 240.625 L 116.667969 240.625 Z "/>
<path style=" stroke:none;fill-rule:nonzero;fill:#4E342E;fill-opacity:1;" d="M 116.667969 109.375 L 233.332031 109.375 L 233.332031 240.625 L 116.667969 240.625 Z "/>
<path style=" stroke:none;fill-rule:nonzero;fill:#FF9800;fill-opacity:1;" d="M 175 269.792969 C 159.007813 269.792969 138.542969 226.042969 138.542969 226.042969 L 138.542969 182.292969 L 211.457031 182.292969 L 211.457031 226.042969 C 211.457031 226.042969 190.984375 269.792969 175 269.792969 "/>
<path style=" stroke:none;fill-rule:nonzero;fill:#FFB74D;fill-opacity:1;" d="M 240.625 102.082031 C 240.625 46.410156 109.375 65.835938 109.375 102.082031 L 109.375 153.125 C 109.375 189.371094 138.746094 218.75 175 218.75 C 211.246094 218.75 240.625 189.371094 240.625 153.125 Z "/>
<path style=" stroke:none;fill-rule:nonzero;fill:#795548;fill-opacity:1;" d="M 175 29.167969 C 130.703125 29.167969 65.625 53.988281 65.625 198.960938 L 116.667969 233.332031 L 116.667969 138.542969 L 204.167969 87.5 L 233.332031 123.957031 L 233.332031 233.332031 L 284.375 189.582031 C 284.375 160.234375 279.460938 43.75 204.167969 43.75 L 196.875 29.167969 Z "/>
<path style=" stroke:none;fill-rule:nonzero;fill:#FFB74D;fill-opacity:1;" d="M 175 277.082031 C 142.769531 277.082031 138.542969 226.042969 138.542969 226.042969 C 138.542969 226.042969 156.820313 255.207031 175 255.207031 C 193.179688 255.207031 211.457031 226.042969 211.457031 226.042969 C 211.457031 226.042969 207.230469 277.082031 175 277.082031 "/>
<path style=" stroke:none;fill-rule:nonzero;fill:#784719;fill-opacity:1;" d="M 196.875 153.125 C 196.875 157.144531 200.140625 160.417969 204.167969 160.417969 C 208.191406 160.417969 211.457031 157.144531 211.457031 153.125 C 211.457031 149.105469 208.191406 145.832031 204.167969 145.832031 C 200.140625 145.832031 196.875 149.105469 196.875 153.125 "/>
<path style=" stroke:none;fill-rule:nonzero;fill:#784719;fill-opacity:1;" d="M 138.542969 153.125 C 138.542969 157.144531 141.808594 160.417969 145.832031 160.417969 C 149.859375 160.417969 153.125 157.144531 153.125 153.125 C 153.125 149.105469 149.859375 145.832031 145.832031 145.832031 C 141.808594 145.832031 138.542969 149.105469 138.542969 153.125 "/>
<path style=" stroke:none;fill-rule:nonzero;fill:#FF9800;fill-opacity:1;" d="M 175 269.792969 C 159.007813 269.792969 138.542969 226.042969 138.542969 226.042969 L 138.542969 182.292969 L 211.457031 182.292969 L 211.457031 226.042969 C 211.457031 226.042969 190.984375 269.792969 175 269.792969 "/>
<path style=" stroke:none;fill-rule:nonzero;fill:#FFB74D;fill-opacity:1;" d="M 240.625 102.082031 C 240.625 46.410156 109.375 65.835938 109.375 102.082031 L 109.375 153.125 C 109.375 189.371094 138.746094 218.75 175 218.75 C 211.246094 218.75 240.625 189.371094 240.625 153.125 Z "/>
<path style=" stroke:none;fill-rule:nonzero;fill:#795548;fill-opacity:1;" d="M 175 29.167969 C 130.703125 29.167969 65.625 53.988281 65.625 198.960938 L 116.667969 233.332031 L 116.667969 138.542969 L 204.167969 87.5 L 233.332031 123.957031 L 233.332031 233.332031 L 284.375 189.582031 C 284.375 160.234375 279.460938 43.75 204.167969 43.75 L 196.875 29.167969 Z "/>
<path style=" stroke:none;fill-rule:nonzero;fill:#FFB74D;fill-opacity:1;" d="M 175 277.082031 C 142.769531 277.082031 138.542969 226.042969 138.542969 226.042969 C 138.542969 226.042969 156.820313 255.207031 175 255.207031 C 193.179688 255.207031 211.457031 226.042969 211.457031 226.042969 C 211.457031 226.042969 207.230469 277.082031 175 277.082031 "/>
<path style=" stroke:none;fill-rule:nonzero;fill:#784719;fill-opacity:1;" d="M 196.875 153.125 C 196.875 157.144531 200.140625 160.417969 204.167969 160.417969 C 208.191406 160.417969 211.457031 157.144531 211.457031 153.125 C 211.457031 149.105469 208.191406 145.832031 204.167969 145.832031 C 200.140625 145.832031 196.875 149.105469 196.875 153.125 "/>
<path style=" stroke:none;fill-rule:nonzero;fill:#784719;fill-opacity:1;" d="M 138.542969 153.125 C 138.542969 157.144531 141.808594 160.417969 145.832031 160.417969 C 149.859375 160.417969 153.125 157.144531 153.125 153.125 C 153.125 149.105469 149.859375 145.832031 145.832031 145.832031 C 141.808594 145.832031 138.542969 149.105469 138.542969 153.125 "/>
<path style=" stroke:none;fill-rule:nonzero;fill:#4FC3F7;fill-opacity:1;" d="M 211.457031 226.042969 C 211.457031 226.042969 204.167969 255.207031 175 255.207031 C 145.832031 255.207031 138.542969 226.042969 138.542969 226.042969 C 138.542969 226.042969 58.332031 240.523438 58.332031 320.832031 L 291.667969 320.832031 C 291.667969 240.808594 211.457031 226.042969 211.457031 226.042969 "/>
<path style=" stroke:none;fill-rule:nonzero;fill:#FF9800;fill-opacity:1;" d="M 175 269.792969 C 159.007813 269.792969 138.542969 226.042969 138.542969 226.042969 L 138.542969 182.292969 L 211.457031 182.292969 L 211.457031 226.042969 C 211.457031 226.042969 190.984375 269.792969 175 269.792969 "/>
<path style=" stroke:none;fill-rule:nonzero;fill:#FFB74D;fill-opacity:1;" d="M 240.625 102.082031 C 240.625 46.410156 109.375 65.835938 109.375 102.082031 L 109.375 153.125 C 109.375 189.371094 138.746094 218.75 175 218.75 C 211.246094 218.75 240.625 189.371094 240.625 153.125 Z "/>
<path style=" stroke:none;fill-rule:nonzero;fill:#795548;fill-opacity:1;" d="M 175 29.167969 C 130.703125 29.167969 65.625 53.988281 65.625 198.960938 L 116.667969 233.332031 L 116.667969 138.542969 L 204.167969 87.5 L 233.332031 123.957031 L 233.332031 233.332031 L 284.375 189.582031 C 284.375 160.234375 279.460938 43.75 204.167969 43.75 L 196.875 29.167969 Z "/>
<path style=" stroke:none;fill-rule:nonzero;fill:#FFB74D;fill-opacity:1;" d="M 175 277.082031 C 142.769531 277.082031 138.542969 226.042969 138.542969 226.042969 C 138.542969 226.042969 156.820313 255.207031 175 255.207031 C 193.179688 255.207031 211.457031 226.042969 211.457031 226.042969 C 211.457031 226.042969 207.230469 277.082031 175 277.082031 "/>
<path style=" stroke:none;fill-rule:nonzero;fill:#01579B;fill-opacity:1;" d="M 175 291.667969 C 209.605469 291.667969 222.914063 254.371094 225.667969 230.210938 C 217.242188 227.121094 211.457031 226.042969 211.457031 226.042969 C 211.457031 226.042969 207.230469 277.082031 175 277.082031 C 142.769531 277.082031 138.542969 226.042969 138.542969 226.042969 C 138.542969 226.042969 132.753906 227.097656 124.324219 230.167969 C 127.070313 254.320313 140.371094 291.667969 175 291.667969 Z "/>
<path style=" stroke:none;fill-rule:nonzero;fill:#784719;fill-opacity:1;" d="M 196.875 153.125 C 196.875 149.105469 200.140625 145.832031 204.167969 145.832031 C 208.191406 145.832031 211.457031 149.105469 211.457031 153.125 C 211.457031 157.144531 208.191406 160.417969 204.167969 160.417969 C 200.140625 160.417969 196.875 157.144531 196.875 153.125 M 138.542969 153.125 C 138.542969 157.144531 141.808594 160.417969 145.832031 160.417969 C 149.859375 160.417969 153.125 157.144531 153.125 153.125 C 153.125 149.105469 149.859375 145.832031 145.832031 145.832031 C 141.808594 145.832031 138.542969 149.105469 138.542969 153.125 "/>
</g>
</svg>
