<?xml version="1.0" encoding="UTF-8"?>
<svg xmlns="http://www.w3.org/2000/svg" xmlns:xlink="http://www.w3.org/1999/xlink" width="528pt" height="528pt" viewBox="0 0 528 528" version="1.1">
<g id="surface1">
<path style=" stroke:none;fill-rule:nonzero;fill:#BF360C;fill-opacity:1;" d="M 176 165 L 352 165 L 352 363 L 176 363 Z "/>
<path style=" stroke:none;fill-rule:nonzero;fill:#BF360C;fill-opacity:1;" d="M 176 165 L 352 165 L 352 363 L 176 363 Z "/>
<path style=" stroke:none;fill-rule:nonzero;fill:#4E342E;fill-opacity:1;" d="M 176 165 L 352 165 L 352 363 L 176 363 Z "/>
<path style=" stroke:none;fill-rule:nonzero;fill:#FF9800;fill-opacity:1;" d="M 264 407 C 239.878906 407 209 341 209 341 L 209 275 L 319 275 L 319 341 C 319 341 288.113281 407 264 407 "/>
<path style=" stroke:none;fill-rule:nonzero;fill:#FFB74D;fill-opacity:1;" d="M 363 154 C 363 70.015625 165 99.320313 165 154 L 165 231 C 165 285.679688 209.308594 330 264 330 C 318.679688 330 363 285.679688 363 231 Z "/>
<path style=" stroke:none;fill-rule:nonzero;fill:#795548;fill-opacity:1;" d="M 264 44 C 197.175781 44 99 81.445313 99 300.144531 L 176 352 L 176 209 L 308 132 L 352 187 L 352 352 L 429 286 C 429 241.726563 421.585938 66 308 66 L 297 44 Z "/>
<path style=" stroke:none;fill-rule:nonzero;fill:#FFB74D;fill-opacity:1;" d="M 264 418 C 215.378906 418 209 341 209 341 C 209 341 236.578125 385 264 385 C 291.421875 385 319 341 319 341 C 319 341 312.621094 418 264 418 "/>
<path style=" stroke:none;fill-rule:nonzero;fill:#784719;fill-opacity:1;" d="M 297 231 C 297 237.0625 301.929688 242 308 242 C 314.070313 242 319 237.0625 319 231 C 319 224.9375 314.070313 220 308 220 C 301.929688 220 297 224.9375 297 231 "/>
<path style=" stroke:none;fill-rule:nonzero;fill:#784719;fill-opacity:1;" d="M 209 231 C 209 237.0625 213.929688 242 220 242 C 226.070313 242 231 237.0625 231 231 C 231 224.9375 226.070313 220 220 220 C 213.929688 220 209 224.9375 209 231 "/>
<path style=" stroke:none;fill-rule:nonzero;fill:#FF9800;fill-opacity:1;" d="M 264 407 C 239.878906 407 209 341 209 341 L 209 275 L 319 275 L 319 341 C 319 341 288.113281 407 264 407 "/>
<path style=" stroke:none;fill-rule:nonzero;fill:#FFB74D;fill-opacity:1;" d="M 363 154 C 363 70.015625 165 99.320313 165 154 L 165 231 C 165 285.679688 209.308594 330 264 330 C 318.679688 330 363 285.679688 363 231 Z "/>
<path style=" stroke:none;fill-rule:nonzero;fill:#795548;fill-opacity:1;" d="M 264 44 C 197.175781 44 99 81.445313 99 300.144531 L 176 352 L 176 209 L 308 132 L 352 187 L 352 352 L 429 286 C 429 241.726563 421.585938 66 308 66 L 297 44 Z "/>
<path style=" stroke:none;fill-rule:nonzero;fill:#FFB74D;fill-opacity:1;" d="M 264 418 C 215.378906 418 209 341 209 341 C 209 341 236.578125 385 264 385 C 291.421875 385 319 341 319 341 C 319 341 312.621094 418 264 418 "/>
<path style=" stroke:none;fill-rule:nonzero;fill:#784719;fill-opacity:1;" d="M 297 231 C 297 237.0625 301.929688 242 308 242 C 314.070313 242 319 237.0625 319 231 C 319 224.9375 314.070313 220 308 220 C 301.929688 220 297 224.9375 297 231 "/>
<path style=" stroke:none;fill-rule:nonzero;fill:#784719;fill-opacity:1;" d="M 209 231 C 209 237.0625 213.929688 242 220 242 C 226.070313 242 231 237.0625 231 231 C 231 224.9375 226.070313 220 220 220 C 213.929688 220 209 224.9375 209 231 "/>
<path style=" stroke:none;fill-rule:nonzero;fill:#4FC3F7;fill-opacity:1;" d="M 319 341 C 319 341 308 385 264 385 C 220 385 209 341 209 341 C 209 341 88 362.847656 88 484 L 440 484 C 440 363.273438 319 341 319 341 "/>
<path style=" stroke:none;fill-rule:nonzero;fill:#FF9800;fill-opacity:1;" d="M 264 407 C 239.878906 407 209 341 209 341 L 209 275 L 319 275 L 319 341 C 319 341 288.113281 407 264 407 "/>
<path style=" stroke:none;fill-rule:nonzero;fill:#FFB74D;fill-opacity:1;" d="M 363 154 C 363 70.015625 165 99.320313 165 154 L 165 231 C 165 285.679688 209.308594 330 264 330 C 318.679688 330 363 285.679688 363 231 Z "/>
<path style=" stroke:none;fill-rule:nonzero;fill:#795548;fill-opacity:1;" d="M 264 44 C 197.175781 44 99 81.445313 99 300.144531 L 176 352 L 176 209 L 308 132 L 352 187 L 352 352 L 429 286 C 429 241.726563 421.585938 66 308 66 L 297 44 Z "/>
<path style=" stroke:none;fill-rule:nonzero;fill:#FFB74D;fill-opacity:1;" d="M 264 418 C 215.378906 418 209 341 209 341 C 209 341 236.578125 385 264 385 C 291.421875 385 319 341 319 341 C 319 341 312.621094 418 264 418 "/>
<path style=" stroke:none;fill-rule:nonzero;fill:#01579B;fill-opacity:1;" d="M 264 440 C 316.207031 440 336.28125 383.734375 340.4375 347.292969 C 327.722656 342.628906 319 341 319 341 C 319 341 312.621094 418 264 418 C 215.378906 418 209 341 209 341 C 209 341 200.265625 342.59375 187.550781 347.226563 C 191.695313 383.65625 211.761719 440 264 440 Z "/>
<path style=" stroke:none;fill-rule:nonzero;fill:#784719;fill-opacity:1;" d="M 297 231 C 297 224.9375 301.929688 220 308 220 C 314.070313 220 319 224.9375 319 231 C 319 237.0625 314.070313 242 308 242 C 301.929688 242 297 237.0625 297 231 M 209 231 C 209 237.0625 213.929688 242 220 242 C 226.070313 242 231 237.0625 231 231 C 231 224.9375 226.070313 220 220 220 C 213.929688 220 209 224.9375 209 231 "/>
</g>
</svg>
