<?xml version="1.0" encoding="UTF-8"?>
<svg xmlns="http://www.w3.org/2000/svg" xmlns:xlink="http://www.w3.org/1999/xlink" width="520pt" height="520pt" viewBox="0 0 520 520" version="1.1">
<g id="surface1">
<path style=" stroke:none;fill-rule:nonzero;fill:#58B8FE;fill-opacity:1;" d="M 260 3.125 C 196.484375 3.125 141.875 45.9375 141.875 128.125 C 141.875 181.796875 167.03125 236.328125 200 270 C 205.3125 283.984375 204.375 294.453125 201.25 301.875 C 205.546875 307.65625 222.265625 324.53125 250 328.125 C 239.765625 339.6875 226.40625 363.59375 215.625 387.5 C 194.84375 358.046875 180 320 180 320 C 114.609375 344.375 40.625 387.1875 40.625 429.375 L 40.625 445.625 C 40.625 504.53125 154.84375 517.5 260.625 517.5 C 366.5625 517.5 479.375 504.53125 479.375 445.625 L 479.375 429.375 C 479.375 386.5625 406.875 344.296875 339.375 320.625 C 339.375 320.625 325 358.28125 304.375 387.5 C 293.59375 363.515625 280.3125 339.6875 270 328.125 C 296.71875 324.84375 312.96875 309.140625 318.125 302.5 C 315.9375 295.234375 315.625 285.15625 320.625 270 C 353.359375 236.25 378.125 181.5625 378.125 128.125 C 378.125 46.015625 323.515625 3.125 260 3.125 Z "/>
</g>
</svg>
