<?xml version="1.0" encoding="UTF-8"?>
<svg xmlns="http://www.w3.org/2000/svg" xmlns:xlink="http://www.w3.org/1999/xlink" width="48pt" height="48pt" viewBox="0 0 48 48" version="1.1">
<g id="surface1">
<path style=" stroke:none;fill-rule:nonzero;fill:#FBCE00;fill-opacity:1;" d="M 24.125 0 C 19.546875 0 19.625 0.4375 19.625 0.4375 C 19.078125 3.078125 18.507813 4.867188 18.125 5.9375 C 15.796875 6.703125 13.648438 7.898438 11.8125 9.4375 C 10.703125 9.21875 8.914063 8.8125 6.4375 7.9375 C 6.4375 7.9375 6.101563 7.648438 3.75 11.625 C 1.390625 15.601563 1.75 15.8125 1.75 15.8125 C 3.578125 17.53125 4.773438 18.851563 5.5 19.75 C 5.1875 21.117188 5 22.539063 5 24 C 5 25.328125 5.117188 26.625 5.375 27.875 C 4.632813 28.757813 3.414063 30.085938 1.5625 31.75 C 1.5625 31.75 1.226563 31.914063 3.5 35.9375 C 5.773438 39.960938 6.0625 39.6875 6.0625 39.6875 C 8.5625 38.859375 10.382813 38.507813 11.5 38.3125 C 13.328125 39.921875 15.460938 41.125 17.8125 41.9375 C 18.203125 42.992188 18.8125 44.828125 19.375 47.5625 C 19.375 47.5625 19.304688 48 23.875 48 C 28.445313 48 28.4375 47.5625 28.4375 47.5625 C 28.984375 44.929688 29.484375 43.132813 29.875 42.0625 C 32.203125 41.296875 34.351563 40.101563 36.1875 38.5625 C 37.296875 38.78125 39.085938 39.1875 41.5625 40.0625 C 41.5625 40.0625 41.890625 40.351563 44.25 36.375 C 46.601563 32.398438 46.25 32.1875 46.25 32.1875 C 44.421875 30.46875 43.226563 29.148438 42.5 28.25 C 42.8125 26.875 43 25.460938 43 24 C 43 22.671875 42.882813 21.375 42.625 20.125 C 43.367188 19.242188 44.585938 17.914063 46.4375 16.25 C 46.4375 16.25 46.773438 16.085938 44.5 12.0625 C 42.226563 8.039063 41.9375 8.3125 41.9375 8.3125 C 39.4375 9.140625 37.617188 9.492188 36.5 9.6875 C 34.671875 8.085938 32.539063 6.875 30.1875 6.0625 C 29.804688 5.007813 29.1875 3.171875 28.625 0.4375 C 28.625 0.4375 28.695313 0 24.125 0 Z M 24 8 C 32.835938 8 40 15.164063 40 24 C 40 32.835938 32.835938 40 24 40 C 15.164063 40 8 32.835938 8 24 C 8 15.164063 15.164063 8 24 8 Z M 24 10 C 16.265625 10 10 16.265625 10 24 C 10 31.734375 16.265625 38 24 38 C 31.734375 38 38 31.734375 38 24 C 38 16.265625 31.734375 10 24 10 Z M 24 16 C 28.421875 16 32 19.578125 32 24 C 32 28.421875 28.421875 32 24 32 C 19.578125 32 16 28.421875 16 24 C 16 19.578125 19.578125 16 24 16 Z "/>
</g>
</svg>
