<?xml version="1.0" encoding="UTF-8"?>
<svg xmlns="http://www.w3.org/2000/svg" xmlns:xlink="http://www.w3.org/1999/xlink" width="52pt" height="52pt" viewBox="0 0 52 52" version="1.1">
<g id="surface1">
<path style=" stroke:none;fill-rule:nonzero;fill:#58B8FE;fill-opacity:1;" d="M 26 2 C 12.765625 2 2 12.765625 2 26 C 2 39.234375 12.765625 50 26 50 C 39.234375 50 50 39.234375 50 26 C 50 12.765625 39.234375 2 26 2 Z M 26 6 C 37.070313 6 46 14.929688 46 26 C 46 37.070313 37.070313 46 26 46 C 14.929688 46 6 37.070313 6 26 C 6 14.929688 14.929688 6 26 6 Z M 34.375 14.125 C 34.078125 14.171875 33.828125 14.328125 33.625 14.625 L 23.8125 29.1875 L 19.1875 24.625 C 18.789063 24.023438 18.023438 23.976563 17.625 24.375 L 15.8125 26.1875 C 15.414063 26.789063 15.414063 27.601563 15.8125 28 L 22.8125 35 C 23.210938 35.203125 23.773438 35.625 24.375 35.625 C 24.773438 35.625 25.414063 35.414063 25.8125 34.8125 L 37.8125 17.1875 C 38.210938 16.585938 37.984375 16.023438 37.1875 15.625 L 35.1875 14.1875 C 34.984375 14.085938 34.671875 14.078125 34.375 14.125 Z "/>
</g>
</svg>
