<?xml version="1.0" encoding="UTF-8"?>
<svg xmlns="http://www.w3.org/2000/svg" xmlns:xlink="http://www.w3.org/1999/xlink" width="52pt" height="52pt" viewBox="0 0 52 52" version="1.1">
<g id="surface1">
<path style=" stroke:none;fill-rule:nonzero;fill:#58B8FE;fill-opacity:1;" d="M 26 0.125 C 26 0.125 23.625 3.1875 23.625 4.5 C 23.625 5.398438 24.132813 6.164063 24.875 6.5625 C 24.265625 6.757813 23.734375 7.101563 23.3125 7.5625 C 22.351563 6.742188 20.945313 6 19 6 C 16.898438 6 15.09375 6.859375 13.5625 7.625 C 12.796875 8.007813 12.109375 8.375 11.5 8.625 C 11.132813 8.21875 10.585938 8 10 8 C 8.882813 8 8 8.882813 8 10 C 8 11.117188 8.882813 12 10 12 C 10.921875 12 11.695313 11.40625 11.9375 10.5625 C 12.773438 10.234375 13.59375 9.796875 14.4375 9.375 C 15.914063 8.640625 17.445313 8 19 8 C 20.8125 8 21.851563 8.8125 22.4375 9.5 C 22.414063 9.664063 22.375 9.835938 22.375 10 C 22.375 12 24 13.625 26 13.625 C 28 13.625 29.625 12 29.625 10 C 29.625 9.835938 29.585938 9.664063 29.5625 9.5 C 30.148438 8.8125 31.1875 8 33 8 C 34.554688 8 36.085938 8.640625 37.5625 9.375 C 38.40625 9.796875 39.226563 10.234375 40.0625 10.5625 C 40.304688 11.40625 41.078125 12 42 12 C 43.117188 12 44 11.117188 44 10 C 44 8.882813 43.117188 8 42 8 C 41.414063 8 40.867188 8.21875 40.5 8.625 C 39.890625 8.375 39.203125 8.007813 38.4375 7.625 C 36.90625 6.859375 35.101563 6 33 6 C 31.054688 6 29.648438 6.742188 28.6875 7.5625 C 28.265625 7.101563 27.734375 6.757813 27.125 6.5625 C 27.867188 6.164063 28.375 5.398438 28.375 4.5 C 28.375 3.1875 26 0.125 26 0.125 Z M 9.6875 13.4375 C 9.390625 13.539063 9.164063 13.765625 9.0625 14.0625 L 2.3125 32 L 0 32 C 1.46875 36.125 5.367188 39.125 10 39.125 C 14.632813 39.125 18.53125 36.125 20 32 L 17.6875 32 L 10.9375 14.0625 C 10.765625 13.609375 10.289063 13.34375 9.8125 13.4375 C 9.773438 13.4375 9.726563 13.4375 9.6875 13.4375 Z M 41.6875 13.4375 C 41.390625 13.539063 41.164063 13.765625 41.0625 14.0625 L 34.3125 32 L 32 32 C 33.46875 36.125 37.367188 39.125 42 39.125 C 46.632813 39.125 50.53125 36.125 52 32 L 49.6875 32 L 42.9375 14.0625 C 42.765625 13.609375 42.289063 13.34375 41.8125 13.4375 C 41.773438 13.4375 41.726563 13.4375 41.6875 13.4375 Z M 22.25 16 C 22.25 17.34375 22.9375 18.523438 24 19.1875 L 24 42.625 C 21.757813 43.429688 20.101563 45.507813 20 48 L 16 48 C 14.898438 48 14 48.898438 14 50 L 14 52 L 38 52 L 38 50 C 38 48.898438 37.101563 48 36 48 L 32 48 C 31.898438 45.507813 30.242188 43.429688 28 42.625 L 28 19.1875 C 29.0625 18.523438 29.75 17.34375 29.75 16 Z M 10 17.3125 L 15.5625 32 L 4.4375 32 Z M 42 17.3125 L 47.5625 32 L 36.4375 32 Z "/>
</g>
</svg>
