<?xml version="1.0" encoding="UTF-8"?>
<svg xmlns="http://www.w3.org/2000/svg" xmlns:xlink="http://www.w3.org/1999/xlink" width="500pt" height="500pt" viewBox="0 0 500 500" version="1.1">
<g id="surface1">
<path style=" stroke:none;fill-rule:nonzero;fill:#58B8FE;fill-opacity:1;" d="M 62.5 62.5 L 62.5 375 C 62.5 409.300781 90.699219 437.5 125 437.5 L 242.554688 437.5 C 267.824219 475.097656 310.792969 500 359.375 500 C 436.890625 500 500 436.890625 500 359.375 C 500 310.792969 475.097656 267.824219 437.5 242.554688 L 437.5 156.25 L 343.75 156.25 L 343.75 62.5 Z M 93.75 93.75 L 312.5 93.75 L 312.5 227.296875 C 301.515625 231.324219 290.894531 236.085938 281.25 242.554688 L 281.25 218.75 L 218.75 218.75 L 218.75 250 L 272.09375 250 C 260.863281 259.035156 250.609375 269.289063 242.554688 281.25 L 218.75 281.25 L 218.75 312.5 L 227.296875 312.5 C 222.046875 327.269531 218.75 342.894531 218.75 359.375 C 218.75 375.855469 222.046875 391.480469 227.296875 406.25 L 125 406.25 C 107.542969 406.25 93.75 392.457031 93.75 375 Z M 125 156.25 L 125 187.5 L 281.25 187.5 L 281.25 156.25 Z M 343.75 187.5 L 406.25 187.5 L 406.25 227.296875 C 391.480469 222.046875 375.855469 218.75 359.375 218.75 C 354.003906 218.75 349 219.726563 343.75 220.335938 Z M 125 218.75 L 125 250 L 187.5 250 L 187.5 218.75 Z M 359.375 250 C 384.035156 250 406.496094 258.300781 424.683594 271.972656 L 271.972656 424.683594 C 258.300781 406.496094 250 384.035156 250 359.375 C 250 298.828125 298.828125 250 359.375 250 Z M 125 281.25 L 125 312.5 L 187.5 312.5 L 187.5 281.25 Z M 446.777344 294.066406 C 460.449219 312.257813 468.75 334.71875 468.75 359.375 C 468.75 419.921875 419.921875 468.75 359.375 468.75 C 334.71875 468.75 312.257813 460.449219 294.066406 446.777344 Z M 125 343.75 L 125 375 L 187.5 375 L 187.5 343.75 Z "/>
</g>
</svg>
