<?xml version="1.0" encoding="UTF-8"?>
<svg xmlns="http://www.w3.org/2000/svg" xmlns:xlink="http://www.w3.org/1999/xlink" width="50pt" height="50pt" viewBox="0 0 50 50" version="1.1">
<g id="surface1">
<path style=" stroke:none;fill-rule:nonzero;fill:#58B8FE;fill-opacity:1;" d="M 6.25 6.25 L 6.25 37.5 C 6.25 40.929688 9.070313 43.75 12.5 43.75 L 24.253906 43.75 C 26.78125 47.507813 31.078125 50 35.9375 50 C 43.6875 50 50 43.6875 50 35.9375 C 50 31.078125 47.507813 26.78125 43.75 24.253906 L 43.75 15.625 L 34.375 15.625 L 34.375 6.25 Z M 9.375 9.375 L 31.25 9.375 L 31.25 22.730469 C 30.152344 23.132813 29.089844 23.609375 28.125 24.253906 L 28.125 21.875 L 21.875 21.875 L 21.875 25 L 27.210938 25 C 26.085938 25.902344 25.0625 26.929688 24.253906 28.125 L 21.875 28.125 L 21.875 31.25 L 22.730469 31.25 C 22.203125 32.726563 21.875 34.289063 21.875 35.9375 C 21.875 37.585938 22.203125 39.148438 22.730469 40.625 L 12.5 40.625 C 10.753906 40.625 9.375 39.246094 9.375 37.5 Z M 12.5 15.625 L 12.5 18.75 L 28.125 18.75 L 28.125 15.625 Z M 34.375 18.75 L 40.625 18.75 L 40.625 22.730469 C 39.148438 22.203125 37.585938 21.875 35.9375 21.875 C 35.398438 21.875 34.898438 21.972656 34.375 22.035156 Z M 12.5 21.875 L 12.5 25 L 18.75 25 L 18.75 21.875 Z M 35.9375 25 C 38.402344 25 40.648438 25.828125 42.46875 27.195313 L 27.195313 42.46875 C 25.828125 40.648438 25 38.402344 25 35.9375 C 25 29.882813 29.882813 25 35.9375 25 Z M 12.5 28.125 L 12.5 31.25 L 18.75 31.25 L 18.75 28.125 Z M 44.675781 29.40625 C 46.042969 31.226563 46.875 33.472656 46.875 35.9375 C 46.875 41.992188 41.992188 46.875 35.9375 46.875 C 33.472656 46.875 31.226563 46.042969 29.40625 44.675781 Z M 12.5 34.375 L 12.5 37.5 L 18.75 37.5 L 18.75 34.375 Z "/>
</g>
</svg>
