<?xml version="1.0" encoding="UTF-8"?>
<svg xmlns="http://www.w3.org/2000/svg" xmlns:xlink="http://www.w3.org/1999/xlink" width="50pt" height="50pt" viewBox="0 0 50 50" version="1.1">
<g id="surface1">
<path style=" stroke:none;fill-rule:nonzero;fill:#58B8FE;fill-opacity:1;" d="M 24.925781 3.1875 C 24.574219 3.210938 24.242188 3.355469 23.976563 3.589844 L 20.203125 7.007813 L 15.222656 5.933594 C 14.441406 5.773438 13.648438 6.226563 13.402344 6.984375 L 11.839844 11.839844 L 6.984375 13.402344 C 6.226563 13.648438 5.773438 14.429688 5.933594 15.210938 L 7.007813 20.203125 L 3.589844 23.976563 C 3.050781 24.574219 3.050781 25.488281 3.589844 26.074219 L 7.007813 29.859375 L 5.933594 34.851563 C 5.773438 35.632813 6.226563 36.414063 6.984375 36.65625 L 11.839844 38.21875 L 13.402344 43.066406 C 13.648438 43.835938 14.429688 44.285156 15.210938 44.128906 L 20.203125 43.054688 L 23.976563 46.472656 C 24.574219 47.007813 25.488281 47.007813 26.074219 46.472656 L 29.859375 43.054688 L 34.851563 44.128906 C 35.632813 44.285156 36.414063 43.835938 36.65625 43.066406 L 38.21875 38.21875 L 43.066406 36.65625 C 43.835938 36.414063 44.285156 35.632813 44.128906 34.851563 L 43.054688 29.859375 L 46.472656 26.074219 C 47.007813 25.488281 47.007813 24.574219 46.472656 23.976563 L 43.054688 20.203125 L 44.128906 15.210938 C 44.285156 14.429688 43.835938 13.648438 43.066406 13.402344 L 38.21875 11.839844 L 36.65625 6.984375 C 36.414063 6.226563 35.632813 5.773438 34.851563 5.933594 L 29.859375 7.007813 L 26.074219 3.589844 C 25.804688 3.34375 25.453125 3.199219 25.085938 3.1875 C 25.035156 3.1875 24.976563 3.1875 24.925781 3.1875 Z M 25.023438 6.859375 L 28.355469 9.863281 C 28.734375 10.203125 29.25 10.339844 29.734375 10.230469 L 34.117188 9.289063 L 35.5 13.5625 C 35.644531 14.039063 36.023438 14.417969 36.5 14.574219 L 40.769531 15.941406 L 39.832031 20.335938 C 39.722656 20.824219 39.867188 21.324219 40.199219 21.703125 L 43.210938 25.023438 L 40.199219 28.355469 C 39.855469 28.734375 39.722656 29.25 39.832031 29.734375 L 40.769531 34.117188 L 36.5 35.5 C 36.023438 35.644531 35.644531 36.023438 35.5 36.5 L 34.117188 40.769531 L 29.734375 39.832031 C 29.25 39.722656 28.734375 39.855469 28.355469 40.199219 L 25.023438 43.210938 L 21.703125 40.199219 C 21.324219 39.867188 20.824219 39.722656 20.335938 39.832031 L 15.941406 40.769531 L 14.574219 36.5 C 14.417969 36.023438 14.039063 35.644531 13.5625 35.5 L 9.300781 34.117188 L 10.230469 29.734375 C 10.339844 29.25 10.203125 28.734375 9.863281 28.355469 L 6.859375 25.023438 L 9.863281 21.703125 C 10.203125 21.335938 10.339844 20.824219 10.230469 20.335938 L 9.300781 15.941406 L 13.5625 14.574219 C 14.039063 14.417969 14.417969 14.039063 14.574219 13.5625 L 15.941406 9.289063 L 20.324219 10.230469 C 20.8125 10.339844 21.324219 10.203125 21.703125 9.863281 Z M 18.75 15.625 C 17.027344 15.625 15.625 17.027344 15.625 18.75 C 15.625 20.472656 17.027344 21.875 18.75 21.875 C 20.472656 21.875 21.875 20.472656 21.875 18.75 C 21.875 17.027344 20.472656 15.625 18.75 15.625 Z M 28.125 15.625 L 18.75 31.25 L 18.75 34.375 L 21.875 34.375 L 31.25 18.75 L 31.25 15.625 Z M 31.25 28.125 C 29.527344 28.125 28.125 29.527344 28.125 31.25 C 28.125 32.972656 29.527344 34.375 31.25 34.375 C 32.972656 34.375 34.375 32.972656 34.375 31.25 C 34.375 29.527344 32.972656 28.125 31.25 28.125 Z "/>
</g>
</svg>
