<?xml version="1.0" encoding="UTF-8"?>
<svg xmlns="http://www.w3.org/2000/svg" xmlns:xlink="http://www.w3.org/1999/xlink" width="96pt" height="96pt" viewBox="0 0 96 96" version="1.1">
<g id="surface1">
<path style=" stroke:none;fill-rule:nonzero;fill:#FFFFFF;fill-opacity:1;" d="M 42 6 L 42 21 L 48 27 L 48 12 L 69 12 L 69 27 L 84 27 L 84 66 L 60 66 L 60 72 L 90 72 L 90 22.734375 L 89.332031 21.9375 L 74.917969 6.714844 L 74.167969 6 Z M 75.597656 14.71875 L 81.75 21.234375 L 75.597656 21.234375 Z M 6 24 L 6 90 L 54 90 L 54 40.734375 L 53.332031 39.9375 L 39 24 Z M 12 30 L 33 30 L 33 45 L 48 45 L 48 84 L 12 84 Z M 39.597656 32.71875 L 45.75 39.234375 L 39.597656 39.234375 Z M 60 36 L 60 42 L 78 42 L 78 36 Z M 60 48 L 60 54 L 78 54 L 78 48 Z M 18 54 L 18 60 L 42 60 L 42 54 Z M 18 66 L 18 72 L 42 72 L 42 66 Z "/>
</g>
</svg>
