<?xml version="1.0" encoding="UTF-8"?>
<svg xmlns="http://www.w3.org/2000/svg" xmlns:xlink="http://www.w3.org/1999/xlink" width="52pt" height="52pt" viewBox="0 0 52 52" version="1.1">
<g id="surface1">
<path style=" stroke:none;fill-rule:nonzero;fill:#58B8FE;fill-opacity:1;" d="M 14 0 C 9.59375 0 6 3.59375 6 8 L 6 44 C 6 48.40625 9.59375 52 14 52 L 38 52 C 42.40625 52 46 48.40625 46 44 L 46 16 C 46 13.875 44.054688 11.859375 40.5625 8.4375 C 40.078125 7.960938 39.554688 7.429688 39.0625 6.9375 C 38.570313 6.445313 38.039063 5.984375 37.5625 5.5 C 34.140625 2.007813 32.125 0 30 0 Z M 14 4 L 28.5625 4 C 30.007813 4.367188 30 6.101563 30 7.875 L 30 14 C 30 15.101563 30.898438 16 32 16 L 38 16 C 39.992188 16 42 16.007813 42 18 L 42 44 C 42 46.210938 40.210938 48 38 48 L 14 48 C 11.789063 48 10 46.210938 10 44 L 10 8 C 10 5.789063 11.789063 4 14 4 Z M 15.625 20 C 14.523438 20.101563 13.710938 21.085938 13.8125 22.1875 C 13.914063 23.289063 14.898438 24.101563 16 24 L 36 24 C 36.71875 24.007813 37.390625 23.632813 37.757813 23.007813 C 38.117188 22.382813 38.117188 21.617188 37.757813 20.992188 C 37.390625 20.367188 36.71875 19.992188 36 20 L 16 20 C 15.9375 20 15.875 20 15.8125 20 C 15.75 20 15.6875 20 15.625 20 Z M 15.625 28 C 14.523438 28.101563 13.710938 29.085938 13.8125 30.1875 C 13.914063 31.289063 14.898438 32.101563 16 32 L 32 32 C 32.71875 32.007813 33.390625 31.632813 33.757813 31.007813 C 34.117188 30.382813 34.117188 29.617188 33.757813 28.992188 C 33.390625 28.367188 32.71875 27.992188 32 28 L 16 28 C 15.9375 28 15.875 28 15.8125 28 C 15.75 28 15.6875 28 15.625 28 Z M 15.625 36 C 14.523438 36.101563 13.710938 37.085938 13.8125 38.1875 C 13.914063 39.289063 14.898438 40.101563 16 40 L 36 40 C 36.71875 40.007813 37.390625 39.632813 37.757813 39.007813 C 38.117188 38.382813 38.117188 37.617188 37.757813 36.992188 C 37.390625 36.367188 36.71875 35.992188 36 36 L 16 36 C 15.9375 36 15.875 36 15.8125 36 C 15.75 36 15.6875 36 15.625 36 Z "/>
</g>
</svg>
