<?xml version="1.0" encoding="UTF-8"?>
<svg xmlns="http://www.w3.org/2000/svg" xmlns:xlink="http://www.w3.org/1999/xlink" width="64pt" height="64pt" viewBox="0 0 64 64" version="1.1">
<g id="surface1">
<path style=" stroke:none;fill-rule:nonzero;fill:#58B8FE;fill-opacity:1;" d="M 32 8 C 18.765625 8 8 18.765625 8 32 C 8 45.234375 18.765625 56 32 56 C 43.15625 56 52.515625 48.335938 55.1875 38 L 51.0625 38 C 48.507813 46.109375 40.9375 52 32 52 C 20.96875 52 12 43.03125 12 32 C 12 20.96875 20.96875 12 32 12 C 40.9375 12 48.507813 17.890625 51.0625 26 L 55.1875 26 C 52.515625 15.664063 43.15625 8 32 8 Z M 33.3125 22.5625 L 25.3125 30.5625 L 23.9375 32 L 25.3125 33.4375 L 33.3125 41.4375 L 36.1875 38.5625 L 31.625 34 L 56 34 L 56 30 L 31.625 30 L 36.1875 25.4375 Z "/>
</g>
</svg>
