<?xml version="1.0" encoding="UTF-8"?>
<svg xmlns="http://www.w3.org/2000/svg" xmlns:xlink="http://www.w3.org/1999/xlink" width="64pt" height="64pt" viewBox="0 0 64 64" version="1.1">
<g id="surface1">
<path style=" stroke:none;fill-rule:nonzero;fill:#FFFFFF;fill-opacity:1;" d="M 8 10 L 8 14 L 12.25 14 L 16 42.25 L 16.25 44 L 54 44 L 54 16 L 18.5625 16 L 19.0625 20 L 50 20 L 50 40 L 19.75 40 L 16 11.75 L 15.75 10 Z M 44 44 C 40.710938 44 38 46.710938 38 50 C 38 53.289063 40.710938 56 44 56 C 47.289063 56 50 53.289063 50 50 C 50 46.710938 47.289063 44 44 44 Z M 26 44 C 22.710938 44 20 46.710938 20 50 C 20 53.289063 22.710938 56 26 56 C 29.289063 56 32 53.289063 32 50 C 32 46.710938 29.289063 44 26 44 Z M 29.625 24 C 28.523438 24.101563 27.710938 25.085938 27.8125 26.1875 C 27.914063 27.289063 28.898438 28.101563 30 28 L 40 28 C 40.71875 28.007813 41.390625 27.632813 41.757813 27.007813 C 42.117188 26.382813 42.117188 25.617188 41.757813 24.992188 C 41.390625 24.367188 40.71875 23.992188 40 24 L 30 24 C 29.9375 24 29.875 24 29.8125 24 C 29.75 24 29.6875 24 29.625 24 Z M 26 48 C 27.125 48 28 48.875 28 50 C 28 51.125 27.125 52 26 52 C 24.875 52 24 51.125 24 50 C 24 48.875 24.875 48 26 48 Z M 44 48 C 45.125 48 46 48.875 46 50 C 46 51.125 45.125 52 44 52 C 42.875 52 42 51.125 42 50 C 42 48.875 42.875 48 44 48 Z "/>
</g>
</svg>
