<?xml version="1.0" encoding="UTF-8"?>
<svg xmlns="http://www.w3.org/2000/svg" xmlns:xlink="http://www.w3.org/1999/xlink" width="52pt" height="52pt" viewBox="0 0 52 52" version="1.1">
<g id="surface1">
<path style=" stroke:none;fill-rule:nonzero;fill:#58B8FE;fill-opacity:1;" d="M 38.8125 -0.0625 C 38.726563 -0.046875 38.640625 -0.0234375 38.5625 0 C 37.8125 0.132813 37.210938 0.679688 37 1.40625 C 36.789063 2.140625 37.007813 2.921875 37.5625 3.4375 L 38.125 4 L 26 4 C 25.9375 4 25.875 4 25.8125 4 C 24.710938 4.054688 23.851563 4.992188 23.90625 6.09375 C 23.960938 7.195313 24.898438 8.054688 26 8 L 38.125 8 L 37.5625 8.5625 C 37.023438 9.101563 36.835938 9.898438 37.078125 10.625 C 37.3125 11.351563 37.9375 11.882813 38.6875 12 L 18.625 12 C 18.289063 12 17.921875 12.085938 17.5625 12.1875 C 16.953125 10.117188 15.710938 5.804688 15.5625 5.3125 C 15.140625 3.882813 14.585938 2.539063 13.4375 1.5 C 12.289063 0.460938 10.703125 0 8.9375 0 L 2 0 C 1.9375 0 1.875 0 1.8125 0 C 1.75 0 1.6875 0 1.625 0 C 0.523438 0.101563 -0.289063 1.085938 -0.1875 2.1875 C -0.0859375 3.289063 0.898438 4.101563 2 4 L 8.9375 4 C 10.085938 4 10.453125 4.226563 10.75 4.5 C 11.046875 4.773438 11.421875 5.3125 11.75 6.4375 C 12.421875 8.710938 21.125 38.3125 21.125 38.3125 C 21.140625 38.375 21.164063 38.4375 21.1875 38.5 C 21.1875 38.5 23.40625 44 29 44 L 44.6875 44 C 45.40625 44.007813 46.078125 43.632813 46.445313 43.007813 C 46.804688 42.382813 46.804688 41.617188 46.445313 40.992188 C 46.078125 40.367188 45.40625 39.992188 44.6875 40 L 29 40 C 26.046875 40 24.875 37 24.875 37 C 24.875 36.992188 24.601563 36.140625 24.5625 36 L 40.8125 36 C 42.875 36 43.804688 34.273438 44 33.625 L 51.1875 18.1875 C 52.296875 15.515625 51.71875 12 47.625 12 L 39.5 12 C 39.859375 11.898438 40.179688 11.710938 40.4375 11.4375 L 44.4375 7.4375 C 44.828125 7.0625 45.046875 6.539063 45.046875 6 C 45.046875 5.460938 44.828125 4.9375 44.4375 4.5625 L 40.4375 0.5625 C 40.023438 0.117188 39.421875 -0.109375 38.8125 -0.0625 Z M 19.25 16.125 L 27.6875 16.125 L 27.6875 19.6875 L 20.375 19.6875 L 19.4375 16.6875 C 19.375 16.46875 19.273438 16.273438 19.25 16.125 Z M 30.3125 16.125 L 35.6875 16.125 L 35.6875 19.6875 L 30.3125 19.6875 Z M 38.3125 16.125 L 47.5625 16.125 C 47.539063 16.265625 47.5 16.390625 47.4375 16.5625 L 46 19.6875 L 38.3125 19.6875 Z M 21.1875 22.3125 L 27.6875 22.3125 L 27.6875 25.6875 L 22.25 25.6875 Z M 30.3125 22.3125 L 35.6875 22.3125 L 35.6875 25.6875 L 30.3125 25.6875 Z M 38.3125 22.3125 L 44.75 22.3125 L 43.1875 25.6875 L 38.3125 25.6875 Z M 23.0625 28.3125 L 27.6875 28.3125 L 27.6875 31.875 L 24.375 31.875 C 24.296875 31.875 24.25 31.851563 24.1875 31.8125 Z M 30.3125 28.3125 L 35.6875 28.3125 L 35.6875 31.875 L 30.3125 31.875 Z M 38.3125 28.3125 L 42 28.3125 L 40.3125 31.875 L 38.3125 31.875 Z M 28 44.375 C 26 44.375 24.375 46 24.375 48 C 24.375 50 26 51.625 28 51.625 C 30 51.625 31.625 50 31.625 48 C 31.625 46 30 44.375 28 44.375 Z M 40 44.375 C 38 44.375 36.375 46 36.375 48 C 36.375 50 38 51.625 40 51.625 C 42 51.625 43.625 50 43.625 48 C 43.625 46 42 44.375 40 44.375 Z "/>
</g>
</svg>
