<?xml version="1.0" encoding="UTF-8"?>
<svg xmlns="http://www.w3.org/2000/svg" xmlns:xlink="http://www.w3.org/1999/xlink" width="1500pt" height="1500pt" viewBox="0 0 1500 1500" version="1.1">
<g id="surface1">
<path style=" stroke:none;fill-rule:nonzero;fill:#58B8FE;fill-opacity:1;" d="M 750 60 C 369.492188 60 60 369.492188 60 750 C 60 1130.507813 369.492188 1440 750 1440 C 1130.507813 1440 1440 1130.507813 1440 750 C 1440 369.492188 1130.507813 60 750 60 Z M 720 150 C 720 133.359375 733.359375 120 750 120 C 766.640625 120 780 133.359375 780 150 L 780 810 C 780 826.640625 766.640625 840 750 840 C 733.359375 840 720 826.640625 720 810 Z M 750 1381.523438 C 402.65625 1381.523438 120 1098.984375 120 751.523438 C 120 480.585938 292.617188 240.585938 549.492188 154.335938 C 565.195313 149.0625 582.304688 157.5 587.578125 173.203125 C 592.851563 188.90625 584.414063 205.898438 568.59375 211.171875 C 336.210938 289.21875 180 506.367188 180 751.523438 C 180 1065.820313 435.703125 1321.523438 750 1321.523438 C 1064.296875 1321.523438 1320 1065.820313 1320 751.523438 C 1320 506.367188 1163.789063 289.21875 931.40625 211.171875 C 915.703125 205.898438 907.148438 188.90625 912.421875 173.203125 C 917.695313 157.5 934.804688 149.0625 950.507813 154.335938 C 1207.382813 240.585938 1380 480.585938 1380 751.523438 C 1380 1098.984375 1097.34375 1381.523438 750 1381.523438 Z "/>
</g>
</svg>
