<?xml version="1.0" encoding="UTF-8"?>
<svg xmlns="http://www.w3.org/2000/svg" xmlns:xlink="http://www.w3.org/1999/xlink" width="1500pt" height="1500pt" viewBox="0 0 1500 1500" version="1.1">
<g id="surface1">
<path style=" stroke:none;fill-rule:nonzero;fill:#58B8FE;fill-opacity:1;" d="M 750 0 C 686.222656 0 634.617188 51.609375 634.617188 115.382813 L 634.617188 692.308594 C 634.617188 756.085938 686.222656 807.691406 750 807.691406 C 813.777344 807.691406 865.382813 756.085938 865.382813 692.308594 L 865.382813 115.382813 C 865.382813 51.609375 813.777344 0 750 0 Z M 337.140625 149.640625 C 320.460938 151.667969 304.914063 158.652344 292.066406 169.472656 C 120.566406 304.6875 10.816406 514.949219 10.816406 750 C 10.816406 1157.226563 342.773438 1489.183594 750 1489.183594 C 1157.226563 1489.183594 1489.183594 1157.226563 1489.183594 750 C 1489.183594 514.949219 1379.433594 304.6875 1207.933594 169.472656 C 1170.523438 139.5 1116.210938 145.582031 1086.238281 182.992188 C 1056.265625 220.402344 1062.351563 274.714844 1099.757813 304.6875 C 1231.371094 408.351563 1316.105469 569.035156 1316.105469 750 C 1316.105469 1063.703125 1063.703125 1316.105469 750 1316.105469 C 436.296875 1316.105469 183.894531 1063.703125 183.894531 750 C 183.894531 569.035156 268.628906 408.351563 400.242188 304.6875 C 431.789063 281.023438 443.285156 239.332031 428.410156 202.824219 C 413.535156 166.316406 376.125 144.679688 337.140625 149.640625 Z "/>
</g>
</svg>
