<?xml version="1.0" encoding="UTF-8"?>
<svg xmlns="http://www.w3.org/2000/svg" xmlns:xlink="http://www.w3.org/1999/xlink" width="64pt" height="64pt" viewBox="0 0 64 64" version="1.1">
<g id="surface1">
<path style=" stroke:none;fill-rule:nonzero;fill:#58B8FE;fill-opacity:1;" d="M 42 8 C 38.414063 8 35.164063 8.671875 32.625 9.9375 C 30.085938 11.203125 28 13.265625 28 16 L 28 24 C 28 24.257813 28.085938 24.507813 28.125 24.75 C 26.265625 24.265625 24.203125 24 22 24 C 18.414063 24 15.164063 24.671875 12.625 25.9375 C 10.085938 27.203125 8 29.265625 8 32 L 8 48 C 8 50.734375 10.085938 52.796875 12.625 54.0625 C 15.164063 55.328125 18.414063 56 22 56 C 25.585938 56 28.835938 55.328125 31.375 54.0625 C 33.914063 52.796875 36 50.734375 36 48 L 36 47.1875 C 37.835938 47.671875 39.84375 48 42 48 C 45.585938 48 48.835938 47.328125 51.375 46.0625 C 53.914063 44.796875 56 42.734375 56 40 L 56 16 C 56 13.265625 53.914063 11.203125 51.375 9.9375 C 48.835938 8.671875 45.585938 8 42 8 Z M 42 12 C 45.046875 12 47.757813 12.65625 49.5625 13.5625 C 51.367188 14.46875 52 15.421875 52 16 C 52 16.578125 51.367188 17.53125 49.5625 18.4375 C 47.757813 19.34375 45.046875 20 42 20 C 38.953125 20 36.242188 19.34375 34.4375 18.4375 C 32.632813 17.53125 32 16.578125 32 16 C 32 15.421875 32.632813 14.46875 34.4375 13.5625 C 36.242188 12.65625 38.953125 12 42 12 Z M 32 21.6875 C 32.210938 21.804688 32.40625 21.953125 32.625 22.0625 C 35.164063 23.328125 38.414063 24 42 24 C 45.585938 24 48.835938 23.328125 51.375 22.0625 C 51.59375 21.953125 51.789063 21.804688 52 21.6875 L 52 24 C 52 24.578125 51.367188 25.53125 49.5625 26.4375 C 47.757813 27.34375 45.046875 28 42 28 C 38.953125 28 36.242188 27.34375 34.4375 26.4375 C 32.632813 25.53125 32 24.578125 32 24 Z M 22 28 C 25.046875 28 27.757813 28.65625 29.5625 29.5625 C 31.367188 30.46875 32 31.421875 32 32 C 32 32.578125 31.367188 33.53125 29.5625 34.4375 C 27.757813 35.34375 25.046875 36 22 36 C 18.953125 36 16.242188 35.34375 14.4375 34.4375 C 12.632813 33.53125 12 32.578125 12 32 C 12 31.421875 12.632813 30.46875 14.4375 29.5625 C 16.242188 28.65625 18.953125 28 22 28 Z M 52 29.6875 L 52 32 C 52 32.578125 51.367188 33.53125 49.5625 34.4375 C 47.757813 35.34375 45.046875 36 42 36 C 39.726563 36 37.671875 35.625 36 35.0625 L 36 32 C 36 31.742188 35.914063 31.492188 35.875 31.25 C 37.734375 31.734375 39.796875 32 42 32 C 45.585938 32 48.835938 31.328125 51.375 30.0625 C 51.59375 29.953125 51.789063 29.804688 52 29.6875 Z M 12 37.6875 C 12.210938 37.804688 12.40625 37.953125 12.625 38.0625 C 15.164063 39.328125 18.414063 40 22 40 C 25.585938 40 28.835938 39.328125 31.375 38.0625 C 31.59375 37.953125 31.789063 37.804688 32 37.6875 L 32 40 C 32 40.578125 31.367188 41.53125 29.5625 42.4375 C 27.757813 43.34375 25.046875 44 22 44 C 18.953125 44 16.242188 43.34375 14.4375 42.4375 C 12.632813 41.53125 12 40.578125 12 40 Z M 52 37.6875 L 52 40 C 52 40.578125 51.367188 41.53125 49.5625 42.4375 C 47.757813 43.34375 45.046875 44 42 44 C 39.726563 44 37.671875 43.679688 36 43.125 L 36 39.25 C 37.835938 39.734375 39.835938 40 42 40 C 45.585938 40 48.835938 39.328125 51.375 38.0625 C 51.59375 37.953125 51.789063 37.804688 52 37.6875 Z M 12 45.6875 C 12.210938 45.804688 12.40625 45.953125 12.625 46.0625 C 15.164063 47.328125 18.414063 48 22 48 C 25.585938 48 28.835938 47.328125 31.375 46.0625 C 31.59375 45.953125 31.789063 45.804688 32 45.6875 L 32 48 C 32 48.578125 31.367188 49.53125 29.5625 50.4375 C 27.757813 51.34375 25.046875 52 22 52 C 18.953125 52 16.242188 51.34375 14.4375 50.4375 C 12.632813 49.53125 12 48.578125 12 48 Z "/>
</g>
</svg>
