<?xml version="1.0" encoding="UTF-8"?>
<svg xmlns="http://www.w3.org/2000/svg" xmlns:xlink="http://www.w3.org/1999/xlink" width="50pt" height="50pt" viewBox="0 0 50 50" version="1.1">
<g id="surface1">
<path style=" stroke:none;fill-rule:nonzero;fill:#58B8FE;fill-opacity:1;" d="M 7.8125 9.375 C 5.238281 9.375 3.125 11.488281 3.125 14.0625 L 3.125 29.6875 C 3.125 32.261719 5.238281 34.375 7.8125 34.375 L 28.125 34.375 L 28.125 31.25 L 9.375 31.25 C 9.375 29.539063 7.957031 28.125 6.25 28.125 L 6.25 15.625 C 7.957031 15.625 9.375 14.210938 9.375 12.5 L 40.625 12.5 C 40.625 14.210938 42.039063 15.625 43.75 15.625 L 43.75 25 L 46.875 25 L 46.875 14.0625 C 46.875 11.488281 44.761719 9.375 42.1875 9.375 Z M 25 15.625 C 21.570313 15.625 18.75 18.445313 18.75 21.875 C 18.75 25.304688 21.570313 28.125 25 28.125 C 28.429688 28.125 31.25 25.304688 31.25 21.875 C 31.25 18.445313 28.429688 15.625 25 15.625 Z M 12.5 18.75 C 10.777344 18.75 9.375 20.152344 9.375 21.875 C 9.375 23.597656 10.777344 25 12.5 25 C 14.222656 25 15.625 23.597656 15.625 21.875 C 15.625 20.152344 14.222656 18.75 12.5 18.75 Z M 25 18.75 C 26.746094 18.75 28.125 20.128906 28.125 21.875 C 28.125 23.621094 26.746094 25 25 25 C 23.253906 25 21.875 23.621094 21.875 21.875 C 21.875 20.128906 23.253906 18.75 25 18.75 Z M 37.5 18.75 C 35.777344 18.75 34.375 20.152344 34.375 21.875 C 34.375 23.597656 35.777344 25 37.5 25 C 39.222656 25 40.625 23.597656 40.625 21.875 C 40.625 20.152344 39.222656 18.75 37.5 18.75 Z M 31.25 28.125 L 31.25 31.25 L 34.375 31.25 L 34.375 34.375 C 34.375 36.242188 35.230469 37.914063 36.546875 39.0625 C 35.230469 40.210938 34.375 41.882813 34.375 43.75 L 34.375 46.875 L 31.25 46.875 L 31.25 50 L 50 50 L 50 46.875 L 46.875 46.875 L 46.875 43.75 C 46.875 41.882813 46.019531 40.210938 44.703125 39.0625 C 46.019531 37.914063 46.875 36.242188 46.875 34.375 L 46.875 31.25 L 50 31.25 L 50 28.125 Z M 37.5 31.25 L 43.75 31.25 L 43.75 34.375 C 43.75 36.121094 42.371094 37.5 40.625 37.5 C 38.878906 37.5 37.5 36.121094 37.5 34.375 Z M 40.625 40.625 C 42.371094 40.625 43.75 42.003906 43.75 43.75 L 43.75 46.875 L 37.5 46.875 L 37.5 43.75 C 37.5 42.003906 38.878906 40.625 40.625 40.625 Z "/>
</g>
</svg>
