<?xml version="1.0" encoding="UTF-8"?>
<svg xmlns="http://www.w3.org/2000/svg" xmlns:xlink="http://www.w3.org/1999/xlink" width="64pt" height="64pt" viewBox="0 0 64 64" version="1.1">
<g id="surface1">
<path style=" stroke:none;fill-rule:nonzero;fill:#58B8FE;fill-opacity:1;" d="M 32 6 C 26 6 21.1875 8.1875 21.1875 8.1875 L 19.25 9 L 20.1875 10.875 L 23.375 17.1875 C 19.109375 19.703125 8 27.40625 8 40 C 8 45.90625 9.914063 50.390625 14.0625 52.875 C 18.210938 55.359375 24.023438 56 32 56 C 39.976563 56 45.789063 55.359375 49.9375 52.875 C 54.085938 50.390625 56 45.90625 56 40 C 56 31.78125 51.203125 25.625 46.6875 21.625 C 50.578125 23.203125 52.5 25.375 52.5 25.375 L 55.5 22.625 C 55.5 22.625 50.398438 17.234375 41.125 16.1875 L 43.8125 10.875 L 44.75 9 L 42.8125 8.1875 C 42.8125 8.1875 38 6 32 6 Z M 32 10 C 35.148438 10 37.53125 10.585938 39.1875 11.125 L 36.75 16 L 27.25 16 L 24.8125 11.125 C 26.46875 10.585938 28.851563 10 32 10 Z M 26.625 20 L 37.375 20 C 37.867188 20.257813 52 27.710938 52 40 C 52 45.140625 50.804688 47.679688 47.875 49.4375 C 44.945313 51.195313 39.726563 52 32 52 C 24.273438 52 19.054688 51.195313 16.125 49.4375 C 13.195313 47.679688 12 45.140625 12 40 C 12 27.710938 26.132813 20.257813 26.625 20 Z M 33.0625 26 C 32.773438 26 32.46875 26.023438 32.1875 26.0625 C 28.820313 26.507813 26 29.398438 26 33.0625 C 26 34.15625 26.265625 35.09375 26.5625 36 L 24 36 L 24 40 L 27.875 40 C 28.1875 41.382813 28.195313 42.5 26.8125 44 L 24 44 L 24 48 L 40 48 L 40 42 L 36 42 L 36 44 L 31.3125 44 C 31.859375 42.632813 31.984375 41.257813 31.875 40 L 34 40 L 34 36 L 30.875 36 C 30.40625 34.671875 30 33.601563 30 33.0625 C 30 30.882813 32.109375 29.421875 34.1875 30.25 L 35.6875 26.5 C 34.820313 26.15625 33.9375 25.992188 33.0625 26 Z "/>
</g>
</svg>
