<?xml version="1.0" encoding="UTF-8"?>
<svg xmlns="http://www.w3.org/2000/svg" xmlns:xlink="http://www.w3.org/1999/xlink" width="52pt" height="52pt" viewBox="0 0 52 52" version="1.1">
<g id="surface1">
<path style=" stroke:none;fill-rule:nonzero;fill:#58B8FE;fill-opacity:1;" d="M 13.9375 0 C 10.648438 0 7.9375 2.710938 7.9375 6 L 7.9375 16 L 6 16 C 2.6875 16 0 18.6875 0 22 L 0 34 C 0 37.3125 2.6875 40 6 40 L 7.9375 40 L 7.9375 46 C 7.9375 49.289063 10.648438 52 13.9375 52 L 37.9375 52 C 41.226563 52 43.9375 49.289063 43.9375 46 L 43.9375 40 L 46 40 C 49.3125 40 52 37.3125 52 34 L 52 22 C 52 18.6875 49.3125 16 46 16 L 43.9375 16 L 43.9375 6 C 43.9375 2.710938 41.226563 0 37.9375 0 Z M 13.9375 4 L 37.9375 4 C 39.0625 4 39.9375 4.875 39.9375 6 L 39.9375 16 L 11.9375 16 L 11.9375 6 C 11.9375 4.875 12.8125 4 13.9375 4 Z M 43 20 C 44.65625 20 46 21.34375 46 23 C 46 24.65625 44.65625 26 43 26 C 41.34375 26 40 24.65625 40 23 C 40 21.34375 41.34375 20 43 20 Z M 11.9375 30 L 39.9375 30 L 39.9375 46 C 39.9375 47.125 39.0625 48 37.9375 48 L 13.9375 48 C 12.8125 48 11.9375 47.125 11.9375 46 Z M 16 34 L 16 38 L 36 38 L 36 34 Z M 16 40 L 16 44 L 30 44 L 30 40 Z "/>
</g>
</svg>
