<?xml version="1.0" encoding="UTF-8"?>
<svg xmlns="http://www.w3.org/2000/svg" xmlns:xlink="http://www.w3.org/1999/xlink" width="52pt" height="52pt" viewBox="0 0 52 52" version="1.1">
<g id="surface1">
<path style=" stroke:none;fill-rule:nonzero;fill:#FBCE00;fill-opacity:1;" d="M 1.625 0 C 0.671875 0.179688 -0.015625 1.023438 0 2 L 0 44 C 0 45.101563 0.898438 46 2 46 L 18 46 L 18 42 L 4 42 L 4 4 L 48 4 L 48 42 L 34 42 L 34 46 L 50 46 C 51.101563 46 52 45.101563 52 44 L 52 2 C 52 0.898438 51.101563 0 50 0 L 2 0 C 1.9375 0 1.875 0 1.8125 0 C 1.75 0 1.6875 0 1.625 0 Z M 10 10 L 10 16 L 42 16 L 42 10 Z M 10 20 L 10 24 L 42 24 L 42 20 Z M 26 27.1875 C 25.203125 27.1875 24.390625 27.828125 24.1875 28.625 L 24 28.625 C 23.398438 28.226563 22.414063 28.210938 21.8125 28.8125 C 21.210938 29.414063 20.984375 30.203125 21.1875 31 C 21.1875 31 21.203125 31.1875 21 31.1875 C 20.203125 31.390625 19.578125 32.015625 19.375 32.8125 C 19.171875 33.609375 19.578125 34.414063 20.375 34.8125 L 20.375 35.1875 C 19.976563 35.789063 19.789063 36.578125 20.1875 37.375 C 20.585938 37.976563 21.390625 38.375 22.1875 38.375 C 22.390625 38.375 22.421875 38.625 22.625 38.625 C 22.625 39.421875 23.015625 39.976563 23.8125 40.375 C 24.609375 40.578125 25.414063 40.414063 25.8125 39.8125 L 26.1875 39.8125 C 26.585938 40.210938 27.023438 40.375 27.625 40.375 C 27.828125 40.375 27.984375 40.390625 28.1875 40.1875 C 28.984375 39.984375 29.375 39.171875 29.375 38.375 C 29.578125 38.375 29.609375 38.1875 29.8125 38.1875 C 30.609375 38.390625 31.414063 37.984375 31.8125 37.1875 C 32.210938 36.585938 32.226563 35.601563 31.625 35 L 31.625 34.625 C 32.226563 34.421875 32.625 33.609375 32.625 32.8125 C 32.421875 32.015625 31.796875 31.390625 31 31.1875 C 31 31.1875 31.015625 31 30.8125 31 C 31.015625 30.203125 30.789063 29.414063 30.1875 28.8125 C 29.585938 28.210938 28.601563 28.226563 28 28.625 L 27.8125 28.625 C 27.609375 27.828125 26.796875 27.1875 26 27.1875 Z M 26 30.8125 C 27.796875 30.8125 29.1875 32.203125 29.1875 34 C 29.1875 35.796875 27.796875 37.1875 26 37.1875 C 24.203125 37.1875 22.8125 35.796875 22.8125 34 C 22.8125 32.203125 24.203125 30.8125 26 30.8125 Z M 20 39.625 L 20 52 L 26 48 L 32 52 L 32 39.625 C 31.796875 39.828125 31.390625 40 31.1875 40 C 30.789063 41 30 41.601563 29 42 C 28.601563 42.203125 28.226563 42.1875 27.625 42.1875 C 27.023438 42.1875 26.398438 42.015625 26 41.8125 C 25.398438 42.015625 24.976563 42.1875 24.375 42.1875 C 23.976563 42.1875 23.601563 42.203125 23 42 C 22 41.601563 21.210938 41 20.8125 40 C 20.414063 40 20.203125 39.828125 20 39.625 Z "/>
</g>
</svg>
