<?xml version="1.0" encoding="UTF-8"?>
<svg xmlns="http://www.w3.org/2000/svg" xmlns:xlink="http://www.w3.org/1999/xlink" width="48pt" height="48pt" viewBox="0 0 48 48" version="1.1">
<g id="surface1">
<path style=" stroke:none;fill-rule:nonzero;fill:#FBCE00;fill-opacity:1;" d="M 24 2 C 17.351563 2 12 7.351563 12 14 L 12 16 C 9.796875 16 8 17.796875 8 20 L 8 40 C 8 42.203125 9.796875 44 12 44 L 36 44 C 38.203125 44 40 42.203125 40 40 L 40 20 C 40 17.796875 38.203125 16 36 16 L 36 14 C 36 7.351563 30.648438 2 24 2 Z M 24 6 C 28.554688 6 32 9.445313 32 14 L 32 16 L 16 16 L 16 14 C 16 9.445313 19.445313 6 24 6 Z M 24 26 C 26.203125 26 28 27.796875 28 30 C 28 32.203125 26.203125 34 24 34 C 21.796875 34 20 32.203125 20 30 C 20 27.796875 21.796875 26 24 26 Z "/>
</g>
</svg>
