<?xml version="1.0" encoding="UTF-8"?>
<svg xmlns="http://www.w3.org/2000/svg" xmlns:xlink="http://www.w3.org/1999/xlink" width="520pt" height="520pt" viewBox="0 0 520 520" version="1.1">
<g id="surface1">
<path style=" stroke:none;fill-rule:nonzero;fill:#58B8FE;fill-opacity:1;" d="M 60 200 C 26.875 200 0 226.875 0 260 C 0 293.125 26.875 320 60 320 C 93.125 320 120 293.125 120 260 C 120 226.875 93.125 200 60 200 Z M 260 200 C 226.875 200 200 226.875 200 260 C 200 293.125 226.875 320 260 320 C 293.125 320 320 293.125 320 260 C 320 226.875 293.125 200 260 200 Z M 460 200 C 426.875 200 400 226.875 400 260 C 400 293.125 426.875 320 460 320 C 493.125 320 520 293.125 520 260 C 520 226.875 493.125 200 460 200 Z "/>
</g>
</svg>
