<?xml version="1.0" encoding="UTF-8"?>
<svg xmlns="http://www.w3.org/2000/svg" xmlns:xlink="http://www.w3.org/1999/xlink" width="520pt" height="520pt" viewBox="0 0 520 520" version="1.1">
<g id="surface1">
<path style=" stroke:none;fill-rule:nonzero;fill:#00223B;fill-opacity:1;" d="M 60 80 C 26.875 80 0 106.875 0 140 L 0 380 C 0 413.125 26.875 440 60 440 L 460 440 C 493.125 440 520 413.125 520 380 L 520 140 C 520 106.875 493.125 80 460 80 Z M 60 120 L 460 120 C 471.015625 120 480 128.984375 480 140 L 480 150 L 260 268.75 L 40 150 L 40 140 C 40 128.984375 48.984375 120 60 120 Z M 40 155.625 L 170.625 257.5 L 42.5 388.75 L 198.75 277.5 L 260 316.875 L 321.25 277.5 L 477.5 388.75 L 349.375 257.5 L 480 155.625 L 480 380 C 480 383.28125 478.90625 386.015625 477.5 388.75 C 474.21875 395.234375 467.8125 400 460 400 L 60 400 C 52.1875 400 45.78125 395.234375 42.5 388.75 C 41.09375 386.015625 40 383.28125 40 380 Z "/>
</g>
</svg>
