<?xml version="1.0" encoding="UTF-8"?>
<svg xmlns="http://www.w3.org/2000/svg" xmlns:xlink="http://www.w3.org/1999/xlink" width="50pt" height="50pt" viewBox="0 0 50 50" version="1.1">
<g id="surface1">
<path style=" stroke:none;fill-rule:nonzero;fill:#58B8FE;fill-opacity:1;" d="M 14.0625 6.25 C 11.492188 6.25 9.375 8.367188 9.375 10.9375 L 9.375 39.0625 C 9.375 41.632813 11.492188 43.75 14.0625 43.75 L 24.253906 43.75 C 26.78125 47.515625 31.078125 50 35.9375 50 C 43.683594 50 50 43.683594 50 35.9375 C 50 29.839844 46.066406 24.679688 40.625 22.734375 L 40.625 16.539063 L 30.335938 6.25 Z M 14.0625 9.375 L 28.125 9.375 L 28.125 18.75 L 37.5 18.75 L 37.5 22.035156 C 36.980469 21.976563 36.472656 21.875 35.9375 21.875 C 35.402344 21.875 34.894531 21.976563 34.375 22.035156 L 34.375 21.875 L 15.625 21.875 L 15.625 25 L 27.210938 25 C 26.082031 25.902344 25.0625 26.925781 24.253906 28.125 L 15.625 28.125 L 15.625 31.25 L 22.734375 31.25 C 22.210938 32.722656 21.875 34.285156 21.875 35.9375 C 21.875 37.589844 22.210938 39.152344 22.734375 40.625 L 14.0625 40.625 C 13.183594 40.625 12.5 39.941406 12.5 39.0625 L 12.5 10.9375 C 12.5 10.058594 13.183594 9.375 14.0625 9.375 Z M 31.25 11.585938 L 35.289063 15.625 L 31.25 15.625 Z M 35.9375 25 C 41.996094 25 46.875 29.878906 46.875 35.9375 C 46.875 41.996094 41.996094 46.875 35.9375 46.875 C 29.878906 46.875 25 41.996094 25 35.9375 C 25 29.878906 29.878906 25 35.9375 25 Z M 34.375 28.125 L 34.375 34.375 L 28.125 34.375 L 28.125 37.5 L 34.375 37.5 L 34.375 43.75 L 37.5 43.75 L 37.5 37.5 L 43.75 37.5 L 43.75 34.375 L 37.5 34.375 L 37.5 28.125 Z "/>
</g>
</svg>
