<?xml version="1.0" encoding="UTF-8"?>
<svg xmlns="http://www.w3.org/2000/svg" xmlns:xlink="http://www.w3.org/1999/xlink" width="50pt" height="50pt" viewBox="0 0 50 50" version="1.1">
<g id="surface1">
<path style=" stroke:none;fill-rule:nonzero;fill:#58B8FE;fill-opacity:1;" d="M 6.25 9.375 C 4.527344 9.375 3.125 10.777344 3.125 12.5 L 3.125 18.75 L 4.6875 18.75 C 7.273438 18.75 9.375 20.851563 9.375 23.4375 C 9.375 26.023438 7.273438 28.125 4.6875 28.125 L 3.125 28.125 L 3.125 34.375 C 3.125 36.101563 4.527344 37.5 6.25 37.5 L 22.035156 37.5 C 22.820313 44.511719 28.71875 50 35.9375 50 C 43.691406 50 50 43.691406 50 35.9375 C 50 29.859375 46.101563 24.71875 40.691406 22.761719 C 41.023438 20.496094 42.960938 18.75 45.3125 18.75 L 46.875 18.75 L 46.875 12.5 C 46.875 10.777344 45.476563 9.375 43.75 9.375 Z M 6.25 12.5 L 43.75 12.5 L 43.75 15.785156 C 40.652344 16.414063 38.214844 18.882813 37.632813 21.996094 L 37.730469 22.058594 C 37.136719 21.980469 36.554688 21.875 35.9375 21.875 C 28.667969 21.875 22.742188 27.441406 22.023438 34.519531 L 21.960938 34.375 L 6.25 34.375 L 6.25 31.089844 C 9.8125 30.367188 12.5 27.210938 12.5 23.4375 C 12.5 19.664063 9.8125 16.511719 6.25 15.785156 Z M 35.9375 25 C 41.96875 25 46.875 29.90625 46.875 35.9375 C 46.875 41.96875 41.96875 46.875 35.9375 46.875 C 29.90625 46.875 25 41.96875 25 35.9375 C 25 29.90625 29.90625 25 35.9375 25 Z M 34.375 28.125 L 34.375 34.375 L 28.125 34.375 L 28.125 37.5 L 34.375 37.5 L 34.375 43.75 L 37.5 43.75 L 37.5 37.5 L 43.75 37.5 L 43.75 34.375 L 37.5 34.375 L 37.5 28.125 Z "/>
</g>
</svg>
