<?xml version="1.0" encoding="UTF-8"?>
<svg xmlns="http://www.w3.org/2000/svg" xmlns:xlink="http://www.w3.org/1999/xlink" width="48pt" height="48pt" viewBox="0 0 48 48" version="1.1">
<g id="surface1">
<path style=" stroke:none;fill-rule:nonzero;fill:#58B8FE;fill-opacity:1;" d="M 14 4 C 10.695313 4 8 6.695313 8 10 L 8 38 C 8 41.304688 10.695313 44 14 44 L 36 44 C 39.304688 44 42 41.304688 42 38 L 42 10 C 42 6.695313 39.304688 4 36 4 C 35.078125 4 34.203125 4.132813 33.375 4.4375 L 34.75 8.1875 C 35.140625 8.046875 35.546875 8 36 8 C 37.101563 8 38 8.898438 38 10 L 38 38 C 38 39.101563 37.101563 40 36 40 L 14 40 C 12.898438 40 12 39.101563 12 38 L 12 10 C 12 8.898438 12.898438 8 14 8 C 14.453125 8 14.859375 8.046875 15.25 8.1875 L 16.625 4.4375 C 15.796875 4.132813 14.921875 4 14 4 Z M 20 6.8125 L 17 9.4375 C 17.484375 10 17.929688 10.75 18.3125 11.625 L 21.9375 10 C 21.390625 8.765625 20.75 7.679688 20 6.8125 Z M 30 6.8125 C 29.25 7.679688 28.609375 8.765625 28.0625 10 L 31.6875 11.625 C 32.070313 10.75 32.515625 10 33 9.4375 Z M 23.0625 13.3125 L 19.1875 14.25 C 19.40625 15.132813 19.554688 16.109375 19.6875 17.125 L 23.6875 16.625 C 23.53125 15.460938 23.320313 14.34375 23.0625 13.3125 Z M 26.9375 13.3125 C 26.679688 14.34375 26.460938 15.460938 26.3125 16.625 L 30.3125 17.125 C 30.445313 16.109375 30.59375 15.132813 30.8125 14.25 Z M 23.9375 19.9375 L 19.9375 20.0625 C 19.960938 20.6875 20 21.351563 20 22 C 20 22 18 29.304688 18 30 C 18 33.007813 20.570313 35.5 23.9375 35.9375 C 24.28125 35.984375 24.640625 36 25 36 C 25.359375 36 25.71875 35.984375 26.0625 35.9375 C 29.429688 35.5 32 33.007813 32 30 C 32 29.304688 30 22 30 22 C 30 21.351563 30.03125 20.6875 30.0625 20.0625 L 26.0625 19.9375 C 26.03125 20.625 26 21.289063 26 22 L 24 22 C 24 21.289063 23.96875 20.625 23.9375 19.9375 Z M 25 26 C 26.65625 26 28 27.34375 28 29 C 28 30.65625 26.65625 32 25 32 C 23.34375 32 22 30.65625 22 29 C 22 27.34375 23.34375 26 25 26 Z "/>
</g>
</svg>
