<?xml version="1.0" encoding="UTF-8"?>
<svg xmlns="http://www.w3.org/2000/svg" xmlns:xlink="http://www.w3.org/1999/xlink" width="520pt" height="520pt" viewBox="0 0 520 520" version="1.1">
<g id="surface1">
<path style=" stroke:none;fill-rule:nonzero;fill:#FFFFFF;fill-opacity:1;" d="M 140 0 C 95.78125 0 57.578125 18.359375 33.75 48.125 C 9.921875 77.890625 0 116.484375 0 158.125 L 0 220 L 60 220 L 60 158.125 C 60 126.5625 67.8125 101.71875 80.625 85.625 C 93.4375 69.53125 110.859375 60 140 60 C 169.21875 60 186.5625 68.984375 199.375 85 C 212.1875 101.015625 220 126.171875 220 158.125 L 220 180 L 280 180 L 280 158.125 C 280 116.25 269.453125 77.265625 245.625 47.5 C 221.796875 17.734375 184.140625 0 140 0 Z M 180 200 C 146.875 200 120 226.875 120 260 L 120 460 C 120 493.125 146.875 520 180 520 L 460 520 C 493.125 520 520 493.125 520 460 L 520 260 C 520 226.875 493.125 200 460 200 Z M 320 300 C 342.109375 300 360 317.890625 360 340 C 360 354.765625 351.953125 367.421875 340 374.375 L 340 420 C 340 431.015625 331.015625 440 320 440 C 308.984375 440 300 431.015625 300 420 L 300 374.375 C 288.046875 367.421875 280 354.765625 280 340 C 280 317.890625 297.890625 300 320 300 Z "/>
</g>
</svg>
