<?xml version="1.0" encoding="UTF-8"?>
<svg xmlns="http://www.w3.org/2000/svg" xmlns:xlink="http://www.w3.org/1999/xlink" width="48pt" height="48pt" viewBox="0 0 48 48" version="1.1">
<g id="surface1">
<path style=" stroke:none;fill-rule:nonzero;fill:#58B8FE;fill-opacity:1;" d="M 33 0 C 29.460938 0 26.585938 2.648438 26.125 6.0625 C 28.328125 6.28125 30.3125 7.171875 31.9375 8.5 L 31.9375 5.9375 L 30.3125 5.9375 L 32.4375 3.8125 L 34.0625 3.8125 L 34.0625 10.1875 L 33.625 10.1875 C 34.414063 11.1875 35.03125 12.328125 35.4375 13.5625 C 38.09375 12.570313 40 10.007813 40 7 C 40 3.132813 36.867188 0 33 0 Z M 25 8 C 20.03125 8 16 12.03125 16 17 C 16 21.96875 20.03125 26 25 26 C 29.96875 26 34 21.96875 34 17 C 34 12.03125 29.96875 8 25 8 Z M 24.25 12.9375 L 26.375 12.9375 L 26.375 21.0625 L 23.625 21.0625 L 23.625 15.625 L 21.5 15.625 Z M 11.6875 29.0625 C 10.640625 29.09375 9.40625 29.40625 7.6875 30.0625 C 4.851563 31.140625 0.125 33.375 0.125 33.375 L 5.8125 45.9375 L 8.5 44.3125 C 10.101563 43.289063 11.640625 43.320313 13.75 44.3125 C 16.117188 45.421875 19.390625 46.523438 21.6875 47.25 C 25.164063 48.351563 25.773438 48.195313 28.0625 46.875 C 30.015625 45.75 43.859375 37.585938 45.3125 36.5625 C 47.578125 34.960938 48.28125 33.53125 47.25 32.1875 C 46.46875 31.171875 44.6875 30.328125 41.125 32.4375 C 41.453125 30.960938 40.328125 30.0625 38.9375 30.0625 C 37.710938 30.0625 36.265625 30.34375 35.125 31.5 C 33.484375 29.34375 31.789063 29.648438 28.5 31.6875 C 27.25 32.46875 26.132813 33.101563 25.3125 33.5625 C 25.09375 33.6875 24.929688 33.78125 24.75 33.875 C 25.070313 33.945313 25.390625 34 25.75 34 C 30.359375 34 34 34 34 38 C 34 41.070313 30.453125 42.023438 28.5625 42.0625 L 22 42.0625 C 18.476563 42.0625 15.0625 38.3125 15.0625 38.3125 C 15.0625 38.3125 19.101563 40 22 40 L 28.5 40 C 28.515625 40 32 39.859375 32 38 C 32 36.296875 30.265625 36 27.5 36 C 22.984375 36 20.75 33.9375 20.75 33.9375 C 20.75 33.9375 17.265625 31.359375 16.1875 30.6875 C 14.59375 29.6875 13.4375 29.015625 11.6875 29.0625 Z "/>
</g>
</svg>
