<?xml version="1.0" encoding="UTF-8"?>
<svg xmlns="http://www.w3.org/2000/svg" xmlns:xlink="http://www.w3.org/1999/xlink" width="64pt" height="64pt" viewBox="0 0 64 64" version="1.1">
<g id="surface1">
<path style=" stroke:none;fill-rule:nonzero;fill:#58B8FE;fill-opacity:1;" d="M 10 10 L 10 36 L 18 36 L 18 48 C 18 51.289063 20.710938 54 24 54 L 36 54 C 39.289063 54 42 51.289063 42 48 L 42 36 L 50 36 L 50 10 L 46 10 L 46 32 L 14 32 L 14 10 Z M 52 10 L 52 32 L 56 32 L 56 10 Z M 20 14 L 20 18 L 24 18 L 24 14 Z M 28 14 L 28 18 L 32 18 L 32 14 Z M 36 14 L 36 18 L 40 18 L 40 14 Z M 20 22 L 20 26 L 24 26 L 24 22 Z M 28 22 L 28 26 L 32 26 L 32 22 Z M 36 22 L 36 26 L 40 26 L 40 22 Z M 22 36 L 30 36 L 30 50 L 24 50 C 22.867188 50 22 49.132813 22 48 Z M 34 36 L 38 36 L 38 48 C 38 49.132813 37.132813 50 36 50 L 34 50 Z "/>
</g>
</svg>
