<?xml version="1.0" encoding="UTF-8"?>
<svg xmlns="http://www.w3.org/2000/svg" xmlns:xlink="http://www.w3.org/1999/xlink" width="96pt" height="96pt" viewBox="0 0 96 96" version="1.1">
<g id="surface1">
<path style=" stroke:none;fill-rule:nonzero;fill:#FFFFFF;fill-opacity:1;" d="M 40 16 C 35.828125 16 33.1875 18.03125 31.375 20.375 C 30.40625 20.203125 29.453125 20.0625 28.5 20.125 C 26.859375 20.25 25.25 20.6875 23.875 21.375 C 21.109375 22.734375 18.84375 24.765625 16.125 27 L 16 27 L 1.375 39.875 L 0 41 L 0 84 L 22.375 84 C 31.046875 84 36.6875 81.921875 40.75 78.875 C 44.8125 75.828125 47.1875 72.390625 50.75 69.375 L 52.25 68 L 84 68 C 90.625 68 96 62.625 96 56 L 96 28 C 96 21.375 90.625 16 84 16 Z M 40 24 L 84 24 C 86.203125 24 88 25.796875 88 28 L 36 28 C 36 25.796875 37.796875 24 40 24 Z M 28 28.25 L 28 53 L 27.625 53.25 C 26.1875 53.8125 25.1875 55.140625 25.078125 56.6875 C 24.96875 58.234375 25.75 59.703125 27.09375 60.46875 C 28.453125 61.21875 30.109375 61.140625 31.375 60.25 L 45.75 52.625 C 48.671875 51.0625 51.578125 49.796875 53.625 49.375 C 55.671875 48.953125 55.9375 49.015625 56.5 49.75 C 57.25 50.734375 57.28125 50.78125 56.625 52.125 C 55.96875 53.46875 54.1875 55.46875 52.125 57.375 L 45.5 63.375 L 45.5 63.25 C 41.125 66.96875 38.65625 70.421875 35.875 72.5 C 33.09375 74.578125 29.921875 76 22.375 76 L 8 76 L 8 44.625 L 21.25 33 L 21.25 33.125 C 23.953125 30.890625 26.078125 29.203125 27.5 28.5 C 27.734375 28.390625 27.828125 28.328125 28 28.25 Z M 36 40 L 88 40 L 88 56 C 88 58.203125 86.203125 60 84 60 L 60.75 60 C 61.890625 58.671875 62.953125 57.265625 63.75 55.625 C 65.234375 52.578125 65.34375 48.140625 62.875 44.875 C 60.203125 41.359375 55.59375 40.765625 52 41.5 C 48.453125 42.21875 45.109375 43.96875 42 45.625 C 41.96875 45.640625 41.90625 45.609375 41.875 45.625 L 36 48.75 Z "/>
</g>
</svg>
