<?xml version="1.0" encoding="UTF-8"?>
<svg xmlns="http://www.w3.org/2000/svg" xmlns:xlink="http://www.w3.org/1999/xlink" width="512pt" height="512pt" viewBox="0 0 512 512" version="1.1">
<g id="surface1">
<path style=" stroke:none;fill-rule:nonzero;fill:#FFFFFF;fill-opacity:1;" d="M 128 80 C 75.1875 80 32 123.1875 32 176 C 32 210.75 52.1875 239.1875 80 256 L 80 390.5 L 84.5 395.5 L 116.5 427.5 L 128 438.5 L 139.5 427.5 L 171.5 395.5 L 176 390.5 L 176 256 C 203.8125 239.1875 224 210.75 224 176 C 224 123.1875 180.8125 80 128 80 Z M 128 112 C 163.5 112 192 140.5 192 176 C 192 202.375 176.0625 224.625 153.5 234.5 L 144 239 L 144 272 L 128 272 L 128 304 L 144 304 L 144 320 L 128 320 L 128 352 L 144 352 L 144 377 L 128 393 L 112 377 L 112 239 L 102.5 234.5 C 79.9375 224.625 64 202.375 64 176 C 64 140.5 92.5 112 128 112 Z M 128 144 C 110.3125 144 96 158.3125 96 176 L 160 176 C 160 158.3125 145.6875 144 128 144 Z M 256 144 L 256 240 L 480 240 L 480 144 Z M 288 176 L 448 176 L 448 208 L 288 208 Z M 256 256 L 256 352 L 480 352 L 480 256 Z M 288 288 L 448 288 L 448 320 L 288 320 Z "/>
</g>
</svg>
