<?xml version="1.0" encoding="UTF-8"?>
<svg xmlns="http://www.w3.org/2000/svg" xmlns:xlink="http://www.w3.org/1999/xlink" width="500pt" height="500pt" viewBox="0 0 500 500" version="1.1">
<g id="surface1">
<path style=" stroke:none;fill-rule:nonzero;fill:#FFFFFF;fill-opacity:1;" d="M 110 70 C 54.84375 70 10 114.84375 10 170 C 10 201.601563 24.84375 231.132813 50 250 C 50 266.523438 63.476563 280 80 280 L 140 280 C 156.523438 280 170 266.523438 170 250 C 195.15625 231.132813 210 201.601563 210 170 C 210 114.84375 165.15625 70 110 70 Z M 110 120 C 137.617188 120 160 142.382813 160 170 L 60 170 C 60 142.382813 82.382813 120 110 120 Z M 250 120 C 244.492188 120 240 124.492188 240 130 L 240 210 C 240 215.507813 244.492188 220 250 220 L 470 220 C 475.546875 220 480 215.507813 480 210 L 480 130 C 480 124.492188 475.546875 120 470 120 Z M 250 280 C 244.492188 280 240 284.453125 240 290 L 240 370 C 240 375.546875 244.492188 380 250 380 L 470 380 C 475.546875 380 480 375.546875 480 370 L 480 290 C 480 284.453125 475.546875 280 470 280 Z M 70 300 L 70 400 C 70 402.65625 70.9375 405.3125 72.8125 407.1875 L 92.8125 427.1875 C 94.6875 429.0625 97.34375 430 100 430 L 120 430 C 122.65625 430 125.3125 429.0625 127.1875 427.1875 L 147.1875 407.1875 C 149.0625 405.3125 150 402.65625 150 400 L 150 380 L 120 380 L 120 360 L 150 360 L 150 340 L 120 340 L 120 320 L 150 320 L 150 300 Z "/>
</g>
</svg>
