<?xml version="1.0" encoding="UTF-8"?>
<svg xmlns="http://www.w3.org/2000/svg" xmlns:xlink="http://www.w3.org/1999/xlink" width="64pt" height="64pt" viewBox="0 0 64 64" version="1.1">
<g id="surface1">
<path style=" stroke:none;fill-rule:nonzero;fill:#58B8FE;fill-opacity:1;" d="M 32 10 L 31.375 10.5625 L 8.5625 33.625 L 7.1875 35 L 8.5625 36.4375 L 27.5625 55.4375 L 29 56.8125 L 30.375 55.4375 L 53.4375 32.625 L 54 32 L 54 10 Z M 33.6875 14 L 50 14 L 50 30.3125 L 29 51.1875 L 12.8125 35 Z M 44 18 C 42.898438 18 42 18.898438 42 20 C 42 21.101563 42.898438 22 44 22 C 45.101563 22 46 21.101563 46 20 C 46 18.898438 45.101563 18 44 18 Z M 27.8125 23.875 L 26.4375 25.25 L 27.6875 26.5 C 27.460938 26.695313 27.21875 26.84375 27 27.0625 C 26.703125 27.359375 26.445313 27.671875 26.1875 28 L 24.9375 26.75 L 23.5 28.1875 L 25.0625 29.75 C 23.328125 33.117188 23.523438 37.148438 26.1875 39.8125 C 27.835938 41.460938 30.101563 42.179688 32.3125 42.0625 L 32.125 38.0625 C 30.890625 38.125 29.78125 37.78125 29 37 L 29 36.9375 C 28.023438 35.929688 27.703125 34.351563 28.125 32.75 L 31.25 35.875 L 32.625 34.5 L 29 30.875 C 29.234375 30.523438 29.492188 30.195313 29.8125 29.875 C 30.023438 29.664063 30.210938 29.484375 30.4375 29.3125 L 34.125 33 L 35.5625 31.5625 L 32.3125 28.3125 C 34.078125 27.695313 35.84375 27.96875 36.9375 29.0625 C 37.71875 29.84375 38.0625 30.882813 38 32.125 L 42 32.375 C 42.117188 30.164063 41.390625 27.898438 39.75 26.25 C 38.039063 24.539063 35.75 23.820313 33.4375 24 C 32.023438 24.109375 30.609375 24.632813 29.3125 25.375 Z "/>
</g>
</svg>
