<?xml version="1.0" encoding="UTF-8"?>
<svg xmlns="http://www.w3.org/2000/svg" xmlns:xlink="http://www.w3.org/1999/xlink" width="520pt" height="520pt" viewBox="0 0 520 520" version="1.1">
<g id="surface1">
<path style=" stroke:none;fill-rule:nonzero;fill:#58B8FE;fill-opacity:1;" d="M 248.75 3.75 L 0 101.875 L 0 370.625 L 300 518.125 L 520 370.625 L 520 101.875 Z M 249.375 46.875 L 473.75 127.5 L 420.625 155.625 L 195 68.125 Z M 140.625 90 L 373.75 180.625 L 311.875 213.125 L 68.75 118.125 Z M 41.25 128.75 L 300 230 L 300 470 L 296.875 471.875 L 40 345.625 L 40 129.375 Z M 130 213.125 L 100.625 251.25 L 120 257.5 L 120 312.5 L 140 320 L 140 264.375 L 160 270.625 Z M 210 240.625 L 180 279.375 L 200 286.25 L 200 346.875 L 220 354.375 L 220 293.125 L 239.375 299.375 Z M 100 320.625 L 100 345 L 240 411.25 L 240 386.25 Z "/>
</g>
</svg>
