<?xml version="1.0" encoding="UTF-8"?>
<svg xmlns="http://www.w3.org/2000/svg" xmlns:xlink="http://www.w3.org/1999/xlink" width="52pt" height="52pt" viewBox="0 0 52 52" version="1.1">
<g id="surface1">
<path style=" stroke:none;fill-rule:nonzero;fill:#58B8FE;fill-opacity:1;" d="M 32.4375 2 C 32.09375 2.0625 31.765625 2.210938 31.5 2.4375 L 27.5 5.8125 L 26.6875 4.875 C 26.296875 4.421875 25.71875 4.171875 25.125 4.1875 C 24.625 4.226563 24.15625 4.445313 23.8125 4.8125 L 22.625 6 C 22.476563 5.984375 22.335938 5.984375 22.1875 6 L 17.375 6 C 17.3125 6 17.25 6 17.1875 6 C 16.851563 6.039063 16.523438 6.171875 16.25 6.375 L 5.25 14.125 C 5.226563 14.148438 5.210938 14.164063 5.1875 14.1875 C 5.164063 14.1875 5.148438 14.1875 5.125 14.1875 C 5.015625 14.242188 4.914063 14.304688 4.8125 14.375 C 4.789063 14.398438 4.773438 14.414063 4.75 14.4375 C 4.726563 14.460938 4.710938 14.476563 4.6875 14.5 C 4.648438 14.515625 4.601563 14.539063 4.5625 14.5625 C 4.46875 14.65625 4.382813 14.765625 4.3125 14.875 C 4.3125 14.898438 4.3125 14.914063 4.3125 14.9375 C 4.289063 14.976563 4.265625 15.023438 4.25 15.0625 C 4.226563 15.085938 4.210938 15.101563 4.1875 15.125 L 0.1875 23.125 C -0.203125 23.898438 -0.0546875 24.828125 0.554688 25.445313 C 1.171875 26.054688 2.101563 26.203125 2.875 25.8125 L 4 25.25 L 4 44 C 4 45.101563 4.898438 46 6 46 L 36 46 C 36.023438 46 36.039063 46 36.0625 46 C 36.1875 45.992188 36.3125 45.96875 36.4375 45.9375 C 36.5 45.921875 36.5625 45.898438 36.625 45.875 C 36.875 45.796875 37.109375 45.671875 37.3125 45.5 C 37.359375 45.460938 37.398438 45.421875 37.4375 45.375 C 37.484375 45.335938 37.523438 45.296875 37.5625 45.25 L 37.6875 45.0625 C 37.734375 45.023438 37.773438 44.984375 37.8125 44.9375 L 45.5625 35.25 C 45.84375 34.898438 46 34.453125 46 34 L 46 24.875 L 51.4375 19.4375 C 52.070313 18.773438 52.171875 17.773438 51.6875 17 L 46 7.5625 C 45.984375 7.523438 45.960938 7.476563 45.9375 7.4375 C 45.9375 7.414063 45.9375 7.398438 45.9375 7.375 L 45.875 7.25 C 45.828125 7.117188 45.765625 6.992188 45.6875 6.875 C 45.617188 6.765625 45.53125 6.65625 45.4375 6.5625 C 45.414063 6.5625 45.398438 6.5625 45.375 6.5625 C 45.351563 6.539063 45.335938 6.523438 45.3125 6.5 C 45.3125 6.476563 45.3125 6.460938 45.3125 6.4375 C 45.289063 6.4375 45.273438 6.4375 45.25 6.4375 C 45.226563 6.414063 45.210938 6.398438 45.1875 6.375 C 45.148438 6.351563 45.101563 6.328125 45.0625 6.3125 C 45.039063 6.3125 45.023438 6.3125 45 6.3125 C 44.960938 6.265625 44.921875 6.226563 44.875 6.1875 C 44.851563 6.1875 44.835938 6.1875 44.8125 6.1875 C 44.789063 6.164063 44.773438 6.148438 44.75 6.125 C 44.710938 6.125 44.664063 6.125 44.625 6.125 C 44.601563 6.101563 44.585938 6.085938 44.5625 6.0625 C 44.523438 6.0625 44.476563 6.0625 44.4375 6.0625 C 44.414063 6.039063 44.398438 6.023438 44.375 6 C 44.335938 6 44.289063 6 44.25 6 C 44.226563 6 44.210938 6 44.1875 6 C 44.148438 6 44.101563 6 44.0625 6 C 44.039063 6 44.023438 6 44 6 L 37.4375 6 L 34.25 2.625 C 33.835938 2.179688 33.234375 1.953125 32.625 2 C 32.5625 2 32.5 2 32.4375 2 Z M 32.625 6.75 L 37.375 11.75 L 35.125 14 L 34.6875 14 L 30.1875 8.8125 Z M 25.125 9.125 L 29.375 14 L 20.25 14 Z M 18 10 L 18.5625 10 L 14.5625 14 L 12.3125 14 Z M 8 18 L 33.25 18 C 33.492188 18.085938 33.742188 18.132813 34 18.125 L 34 42 L 8 42 L 8 22.25 C 8.007813 22.164063 8.007813 22.085938 8 22 Z M 15.4375 20 C 14.335938 20.15625 13.5625 21.179688 13.71875 22.28125 C 13.875 23.382813 14.898438 24.15625 16 24 L 26 24 C 26.71875 24.007813 27.390625 23.632813 27.757813 23.007813 C 28.117188 22.382813 28.117188 21.617188 27.757813 20.992188 C 27.390625 20.367188 26.71875 19.992188 26 20 L 16 20 C 15.9375 20 15.875 20 15.8125 20 C 15.75 20 15.6875 20 15.625 20 C 15.5625 20 15.5 20 15.4375 20 Z "/>
</g>
</svg>
