<?xml version="1.0" encoding="UTF-8"?>
<svg xmlns="http://www.w3.org/2000/svg" xmlns:xlink="http://www.w3.org/1999/xlink" width="48pt" height="48pt" viewBox="0 0 48 48" version="1.1">
<g id="surface1">
<path style=" stroke:none;fill-rule:nonzero;fill:#58B8FE;fill-opacity:1;" d="M 32.8125 0 L 28.8125 19.1875 L 48 15.1875 C 46 7.789063 40.210938 2 32.8125 0 Z M 22 4.1875 C 10.007813 4.1875 0.1875 14.007813 0.1875 26 C 0.1875 37.992188 10.007813 47.8125 22 47.8125 C 33.992188 47.8125 43.8125 37.992188 43.8125 26 C 43.8125 24.0625 43.601563 21.882813 42.875 19.9375 L 42.375 18.5 L 40.8125 18.8125 L 26.125 21.875 L 29.1875 7.1875 L 29.5 5.625 L 28.0625 5.125 C 26.117188 4.398438 23.9375 4.1875 22 4.1875 Z M 22 7.8125 C 23.140625 7.8125 24.1875 8.101563 25.25 8.3125 L 22 23.8125 L 21.4375 26.5625 L 24.1875 26 L 39.6875 22.75 C 39.898438 23.8125 40.1875 24.859375 40.1875 26 C 40.1875 36.007813 32.007813 44.1875 22 44.1875 C 11.992188 44.1875 3.8125 36.007813 3.8125 26 C 3.8125 15.992188 11.992188 7.8125 22 7.8125 Z "/>
</g>
</svg>
