<?xml version="1.0" encoding="UTF-8"?>
<svg xmlns="http://www.w3.org/2000/svg" xmlns:xlink="http://www.w3.org/1999/xlink" width="50pt" height="50pt" viewBox="0 0 50 50" version="1.1">
<g id="surface1">
<path style=" stroke:none;fill-rule:nonzero;fill:#58B8FE;fill-opacity:1;" d="M 5.46875 6.25 C 4.179688 6.25 3.125 7.304688 3.125 8.59375 L 3.125 41.40625 C 3.125 42.695313 4.179688 43.75 5.46875 43.75 L 44.53125 43.75 C 45.820313 43.75 46.875 42.695313 46.875 41.40625 L 46.875 8.59375 C 46.875 7.304688 45.820313 6.25 44.53125 6.25 Z M 5.46875 7.8125 L 44.53125 7.8125 C 44.960938 7.8125 45.3125 8.164063 45.3125 8.59375 L 45.3125 14.0625 L 4.6875 14.0625 L 4.6875 8.59375 C 4.6875 8.164063 5.039063 7.8125 5.46875 7.8125 Z M 7.03125 9.375 C 6.601563 9.375 6.25 9.722656 6.25 10.15625 L 6.25 11.71875 C 6.25 12.152344 6.601563 12.5 7.03125 12.5 C 7.460938 12.5 7.8125 12.152344 7.8125 11.71875 L 7.8125 10.15625 C 7.8125 9.722656 7.460938 9.375 7.03125 9.375 Z M 10.9375 9.375 C 10.507813 9.375 10.15625 9.722656 10.15625 10.15625 L 10.15625 11.71875 C 10.15625 12.152344 10.507813 12.5 10.9375 12.5 C 11.367188 12.5 11.71875 12.152344 11.71875 11.71875 L 11.71875 10.15625 C 11.71875 9.722656 11.367188 9.375 10.9375 9.375 Z M 14.84375 9.375 C 14.414063 9.375 14.0625 9.722656 14.0625 10.15625 L 14.0625 11.71875 C 14.0625 12.152344 14.414063 12.5 14.84375 12.5 C 15.273438 12.5 15.625 12.152344 15.625 11.71875 L 15.625 10.15625 C 15.625 9.722656 15.273438 9.375 14.84375 9.375 Z M 18.75 9.375 C 18.320313 9.375 17.96875 9.722656 17.96875 10.15625 L 17.96875 11.71875 C 17.96875 12.152344 18.320313 12.5 18.75 12.5 C 19.179688 12.5 19.53125 12.152344 19.53125 11.71875 L 19.53125 10.15625 C 19.53125 9.722656 19.179688 9.375 18.75 9.375 Z M 22.65625 9.375 C 22.226563 9.375 21.875 9.722656 21.875 10.15625 L 21.875 11.71875 C 21.875 12.152344 22.226563 12.5 22.65625 12.5 C 23.085938 12.5 23.4375 12.152344 23.4375 11.71875 L 23.4375 10.15625 C 23.4375 9.722656 23.085938 9.375 22.65625 9.375 Z M 26.5625 9.375 C 26.132813 9.375 25.78125 9.722656 25.78125 10.15625 L 25.78125 11.71875 C 25.78125 12.152344 26.132813 12.5 26.5625 12.5 C 26.992188 12.5 27.34375 12.152344 27.34375 11.71875 L 27.34375 10.15625 C 27.34375 9.722656 26.992188 9.375 26.5625 9.375 Z M 30.46875 9.375 C 30.039063 9.375 29.6875 9.722656 29.6875 10.15625 L 29.6875 11.71875 C 29.6875 12.152344 30.039063 12.5 30.46875 12.5 C 30.898438 12.5 31.25 12.152344 31.25 11.71875 L 31.25 10.15625 C 31.25 9.722656 30.898438 9.375 30.46875 9.375 Z M 34.375 9.375 C 33.945313 9.375 33.59375 9.722656 33.59375 10.15625 L 33.59375 11.71875 C 33.59375 12.152344 33.945313 12.5 34.375 12.5 C 34.804688 12.5 35.15625 12.152344 35.15625 11.71875 L 35.15625 10.15625 C 35.15625 9.722656 34.804688 9.375 34.375 9.375 Z M 38.28125 9.375 C 37.851563 9.375 37.5 9.722656 37.5 10.15625 L 37.5 11.71875 C 37.5 12.152344 37.851563 12.5 38.28125 12.5 C 38.710938 12.5 39.0625 12.152344 39.0625 11.71875 L 39.0625 10.15625 C 39.0625 9.722656 38.710938 9.375 38.28125 9.375 Z M 42.1875 9.375 C 41.757813 9.375 41.40625 9.722656 41.40625 10.15625 L 41.40625 11.71875 C 41.40625 12.152344 41.757813 12.5 42.1875 12.5 C 42.617188 12.5 42.96875 12.152344 42.96875 11.71875 L 42.96875 10.15625 C 42.96875 9.722656 42.617188 9.375 42.1875 9.375 Z M 4.6875 15.625 L 45.3125 15.625 L 45.3125 41.40625 C 45.3125 41.835938 44.960938 42.1875 44.53125 42.1875 L 5.46875 42.1875 C 5.039063 42.1875 4.6875 41.835938 4.6875 41.40625 Z M 17.96875 17.28125 C 17.539063 17.28125 17.1875 17.628906 17.1875 18.0625 L 17.1875 23.53125 L 7.03125 23.53125 C 6.601563 23.53125 6.25 23.878906 6.25 24.3125 C 6.25 24.746094 6.601563 25.09375 7.03125 25.09375 L 17.1875 25.09375 L 17.1875 39.9375 C 17.1875 40.371094 17.539063 40.71875 17.96875 40.71875 C 18.398438 40.71875 18.75 40.371094 18.75 39.9375 L 18.75 34.46875 L 31.25 34.46875 L 31.25 39.9375 C 31.25 40.371094 31.601563 40.71875 32.03125 40.71875 C 32.460938 40.71875 32.8125 40.371094 32.8125 39.9375 L 32.8125 34.46875 L 42.96875 34.46875 C 43.398438 34.46875 43.75 34.121094 43.75 33.6875 C 43.75 33.253906 43.398438 32.90625 42.96875 32.90625 L 32.8125 32.90625 L 32.8125 18.0625 C 32.8125 17.628906 32.460938 17.28125 32.03125 17.28125 C 31.601563 17.28125 31.25 17.628906 31.25 18.0625 L 31.25 23.53125 L 21.09375 23.53125 C 20.664063 23.53125 20.3125 23.878906 20.3125 24.3125 C 20.3125 24.746094 20.664063 25.09375 21.09375 25.09375 L 31.25 25.09375 L 31.25 32.90625 L 18.75 32.90625 L 18.75 18.0625 C 18.75 17.628906 18.398438 17.28125 17.96875 17.28125 Z M 35.09375 23.53125 C 34.660156 23.53125 34.3125 23.878906 34.3125 24.3125 C 34.3125 24.746094 34.660156 25.09375 35.09375 25.09375 L 42.96875 25.09375 C 43.398438 25.09375 43.75 24.746094 43.75 24.3125 C 43.75 23.878906 43.398438 23.53125 42.96875 23.53125 Z M 7.03125 32.90625 C 6.601563 32.90625 6.25 33.253906 6.25 33.6875 C 6.25 34.121094 6.601563 34.46875 7.03125 34.46875 L 14.84375 34.46875 C 15.273438 34.46875 15.625 34.121094 15.625 33.6875 C 15.625 33.253906 15.273438 32.90625 14.84375 32.90625 Z "/>
</g>
</svg>
