<?xml version="1.0" encoding="UTF-8"?>
<svg xmlns="http://www.w3.org/2000/svg" xmlns:xlink="http://www.w3.org/1999/xlink" width="64pt" height="64pt" viewBox="0 0 64 64" version="1.1">
<g id="surface1">
<path style=" stroke:none;fill-rule:nonzero;fill:#58B8FE;fill-opacity:1;" d="M 4 20 L 4 44 L 32.5625 44 C 32.226563 45.289063 32 46.609375 32 48 C 32 56.8125 39.1875 64 48 64 C 56.8125 64 64 56.8125 64 48 C 64 43.929688 62.453125 40.203125 59.9375 37.375 L 60 37.375 L 60 20 Z M 8 24 L 56 24 L 56 34.1875 C 53.640625 32.8125 50.914063 32 48 32 C 42.101563 32 36.960938 35.226563 34.1875 40 L 8 40 Z M 48 36 C 54.648438 36 60 41.351563 60 48 C 60 54.648438 54.648438 60 48 60 C 41.351563 60 36 54.648438 36 48 C 36 41.351563 41.351563 36 48 36 Z M 43.4375 40.5625 L 40.5625 43.4375 L 45.125 48 L 40.5625 52.5625 L 43.4375 55.4375 L 48 50.875 L 52.5625 55.4375 L 55.4375 52.5625 L 50.875 48 L 55.4375 43.4375 L 52.5625 40.5625 L 48 45.125 Z "/>
</g>
</svg>
