<?xml version="1.0" encoding="UTF-8"?>
<svg xmlns="http://www.w3.org/2000/svg" xmlns:xlink="http://www.w3.org/1999/xlink" width="64pt" height="64pt" viewBox="0 0 64 64" version="1.1">
<g id="surface1">
<path style=" stroke:none;fill-rule:nonzero;fill:#58B8FE;fill-opacity:1;" d="M 12 6 L 12 20 L 16 20 L 16 10 L 48 10 L 48 20 L 52 20 L 52 6 Z M 14 24 L 18 32 L 14 40 L 18 40 L 20 36 L 22 40 L 26 40 L 22 32 L 26 24 L 22 24 L 20 28 L 18 24 Z M 28 24 L 28 40 L 32 40 L 32 30.664063 L 34 33.335938 L 36 30.664063 L 36 40 L 40 40 L 40 24 L 36 24 L 34 26.664063 L 32 24 Z M 44 24 L 44 40 L 52 40 L 52 36 L 48 36 L 48 24 Z M 12 44 L 12 58 L 52 58 L 52 44 L 48 44 L 48 54 L 16 54 L 16 44 Z "/>
</g>
</svg>
