<?xml version="1.0" encoding="UTF-8"?>
<svg xmlns="http://www.w3.org/2000/svg" xmlns:xlink="http://www.w3.org/1999/xlink" width="52pt" height="52pt" viewBox="0 0 52 52" version="1.1">
<g id="surface1">
<path style=" stroke:none;fill-rule:nonzero;fill:#58B8FE;fill-opacity:1;" d="M 36 18 L 30 18 L 30 4 L 36 4 Z M 52 12 L 52 46 C 52 49.3125 49.3125 52 46 52 L 6 52 C 2.6875 52 0 49.3125 0 46 L 0 6 C 0 2.6875 2.6875 0 6 0 L 40 0 C 41.65625 0 42.570313 0.0859375 47.242188 4.757813 C 51.914063 9.429688 52 10.34375 52 12 Z M 10 18 C 10 19.101563 10.898438 20 12 20 L 38 20 C 39.101563 20 40 19.101563 40 18 L 40 4 C 40 2.898438 39.101563 2 38 2 L 12 2 C 10.898438 2 10 2.898438 10 4 Z M 46 28 C 46 26.898438 45.101563 26 44 26 L 8 26 C 6.898438 26 6 26.898438 6 28 L 6 48 C 6 49.101563 6.898438 50 8 50 L 44 50 C 45.101563 50 46 49.101563 46 48 Z "/>
</g>
</svg>
