<?xml version="1.0" encoding="UTF-8"?>
<svg xmlns="http://www.w3.org/2000/svg" xmlns:xlink="http://www.w3.org/1999/xlink" width="1500pt" height="1500pt" viewBox="0 0 1500 1500" version="1.1">
<g id="surface1">
<path style=" stroke:none;fill-rule:nonzero;fill:#FBCE00;fill-opacity:1;" d="M 1038.460938 519.230469 L 865.382813 519.230469 L 865.382813 115.382813 L 1038.460938 115.382813 Z M 1500 346.152344 L 1500 1326.921875 C 1500 1422.476563 1422.476563 1500 1326.921875 1500 L 173.078125 1500 C 77.523438 1500 0 1422.476563 0 1326.921875 L 0 173.078125 C 0 77.523438 77.523438 0 173.078125 0 L 1153.847656 0 C 1201.621094 0 1227.988281 2.480469 1362.753906 137.246094 C 1497.519531 272.011719 1500 298.378906 1500 346.152344 Z M 288.460938 519.230469 C 288.460938 551.007813 314.378906 576.921875 346.152344 576.921875 L 1096.152344 576.921875 C 1127.929688 576.921875 1153.847656 551.007813 1153.847656 519.230469 L 1153.847656 115.382813 C 1153.847656 83.609375 1127.929688 57.691406 1096.152344 57.691406 L 346.152344 57.691406 C 314.378906 57.691406 288.460938 83.609375 288.460938 115.382813 Z M 1326.921875 807.691406 C 1326.921875 775.917969 1301.007813 750 1269.230469 750 L 230.769531 750 C 198.992188 750 173.078125 775.917969 173.078125 807.691406 L 173.078125 1384.617188 C 173.078125 1416.390625 198.992188 1442.308594 230.769531 1442.308594 L 1269.230469 1442.308594 C 1301.007813 1442.308594 1326.921875 1416.390625 1326.921875 1384.617188 Z "/>
</g>
</svg>
