<?xml version="1.0" encoding="UTF-8"?>
<svg xmlns="http://www.w3.org/2000/svg" xmlns:xlink="http://www.w3.org/1999/xlink" width="520pt" height="520pt" viewBox="0 0 520 520" version="1.1">
<g id="surface1">
<path style=" stroke:none;fill-rule:nonzero;fill:#FBCE00;fill-opacity:1;" d="M 60 0 C 26.953125 0 0 26.953125 0 60 L 0 460 C 0 493.046875 26.953125 520 60 520 L 280 520 C 313.046875 520 340 493.046875 340 460 L 340 60 C 340 26.953125 313.046875 0 280 0 Z M 332.5 0 C 349.296875 14.6875 360 36.015625 360 60 L 360 460 C 360 483.984375 349.296875 505.3125 332.5 520 L 460 480 C 490.625 465.9375 520 453.125 520 420 L 520 100 C 520 66.875 491.5625 52.5 460 40 Z M 60 40 L 280 40 C 291.015625 40 300 48.984375 300 60 L 300 240 C 300 251.015625 291.015625 260 280 260 L 60 260 C 48.984375 260 40 251.015625 40 240 L 40 60 C 40 48.984375 48.984375 40 60 40 Z M 80 60 C 68.984375 60 60 68.984375 60 80 L 60 120 C 60 131.015625 68.984375 140 80 140 L 260 140 C 271.015625 140 280 131.015625 280 120 L 280 80 C 280 68.984375 271.015625 60 260 60 Z M 80 160 C 68.984375 160 60 168.984375 60 180 L 60 220 C 60 231.015625 68.984375 240 80 240 L 260 240 C 271.015625 240 280 231.015625 280 220 L 280 180 C 280 168.984375 271.015625 160 260 160 Z M 170 338.75 C 187.265625 338.75 201.25 352.734375 201.25 370 C 201.25 387.265625 187.265625 401.25 170 401.25 C 152.734375 401.25 138.75 387.265625 138.75 370 C 138.75 352.734375 152.734375 338.75 170 338.75 Z "/>
</g>
</svg>
