<?xml version="1.0" encoding="UTF-8"?>
<svg xmlns="http://www.w3.org/2000/svg" xmlns:xlink="http://www.w3.org/1999/xlink" width="528pt" height="528pt" viewBox="0 0 528 528" version="1.1">
<g id="surface1">
<path style=" stroke:none;fill-rule:nonzero;fill:#E65100;fill-opacity:1;" d="M 281.601563 378.398438 C 282.699219 374 282.699219 368.5 282.699219 363 C 282.699219 357.5 282.699219 353.101563 281.601563 347.601563 L 312.398438 325.601563 C 315.699219 323.398438 316.800781 319 314.601563 315.699219 L 284.898438 265.101563 C 282.699219 261.800781 279.398438 260.699219 276.101563 261.800781 L 242 278.300781 C 234.300781 271.699219 225.5 267.300781 215.601563 262.898438 L 212.300781 225.5 C 212.300781 222.199219 209 218.898438 205.699219 218.898438 L 147.398438 218.898438 C 144.101563 218.898438 140.800781 222.199219 140.800781 225.5 L 136.398438 264 C 126.5 267.300781 118.800781 272.800781 110 279.398438 L 75.898438 264 C 72.601563 262.898438 68.199219 264 67.101563 267.300781 L 37.398438 317.898438 C 35.199219 321.199219 36.300781 325.601563 39.601563 327.800781 L 70.398438 349.800781 C 69.300781 354.199219 69.300781 359.699219 69.300781 365.199219 C 69.300781 370.699219 69.300781 375.101563 70.398438 380.601563 L 39.601563 402.601563 C 36.300781 404.800781 35.199219 409.199219 37.398438 412.5 L 67.101563 463.101563 C 69.300781 466.398438 72.601563 467.5 75.898438 466.398438 L 110 451 C 117.699219 457.601563 126.5 462 136.398438 466.398438 L 139.699219 503.800781 C 139.699219 507.101563 143 510.398438 146.300781 510.398438 L 204.601563 510.398438 C 207.898438 510.398438 211.199219 507.101563 211.199219 503.800781 L 214.5 466.398438 C 224.398438 463.101563 232.101563 457.601563 240.898438 451 L 275 466.398438 C 278.300781 467.5 282.699219 466.398438 283.800781 463.101563 L 313.5 412.5 C 315.699219 409.199219 314.601563 404.800781 311.300781 402.601563 Z M 176 418 C 145.199219 418 121 393.800781 121 363 C 121 332.199219 145.199219 308 176 308 C 206.800781 308 231 332.199219 231 363 C 231 393.800781 206.800781 418 176 418 Z "/>
<path style=" stroke:none;fill-rule:nonzero;fill:#FFA000;fill-opacity:1;" d="M 460.898438 168.300781 C 462 162.800781 462 158.398438 462 154 C 462 149.601563 462 145.199219 460.898438 139.699219 L 488.398438 119.898438 C 491.699219 117.699219 491.699219 114.398438 490.601563 111.101563 L 463.101563 63.800781 C 460.898438 60.5 457.601563 59.398438 454.300781 61.601563 L 422.398438 75.898438 C 414.699219 70.398438 407 66 398.199219 61.601563 L 394.898438 27.5 C 396 24.199219 393.800781 22 390.5 22 L 336.601563 22 C 333.300781 22 330 24.199219 330 27.5 L 326.699219 61.601563 C 317.898438 64.898438 310.199219 69.300781 302.5 75.898438 L 270.601563 61.601563 C 267.300781 60.5 264 61.601563 261.800781 63.800781 L 234.300781 111.101563 C 232.101563 114.398438 233.199219 117.699219 236.5 119.898438 L 264 139.699219 C 264 145.199219 264 149.601563 264 154 C 264 158.398438 264 162.800781 265.101563 168.300781 L 237.601563 188.101563 C 234.300781 190.300781 234.300781 193.601563 235.398438 196.898438 L 262.898438 244.199219 C 265.101563 247.5 268.398438 248.601563 271.699219 246.398438 L 303.601563 232.101563 C 311.300781 237.601563 319 242 327.800781 246.398438 L 331.101563 280.5 C 331.101563 283.800781 334.398438 286 337.699219 286 L 391.601563 286 C 394.898438 286 398.199219 283.800781 398.199219 280.5 L 401.5 246.398438 C 410.300781 243.101563 418 238.699219 425.699219 232.101563 L 457.601563 246.398438 C 460.898438 247.5 464.199219 246.398438 466.398438 244.199219 L 493.898438 196.898438 C 496.101563 193.601563 495 190.300781 491.699219 188.101563 Z M 363 209 C 332.199219 209 308 184.800781 308 154 C 308 123.199219 332.199219 99 363 99 C 393.800781 99 418 123.199219 418 154 C 418 184.800781 393.800781 209 363 209 Z "/>
</g>
</svg>
