<?xml version="1.0" encoding="UTF-8"?>
<svg xmlns="http://www.w3.org/2000/svg" xmlns:xlink="http://www.w3.org/1999/xlink" width="64pt" height="64pt" viewBox="0 0 64 64" version="1.1">
<g id="surface1">
<path style=" stroke:none;fill-rule:nonzero;fill:#58B8FE;fill-opacity:1;" d="M 42 6 C 33.140625 6 26 13.140625 26 22 C 26 22.46875 26.070313 23.109375 26.125 23.6875 L 9 40.8125 C 5.0625 44.75 5.0625 51.0625 9 55 C 12.9375 58.9375 19.25 58.9375 23.1875 55 L 40.3125 37.875 C 40.890625 37.929688 41.53125 38 42 38 C 50.859375 38 58 30.859375 58 22 C 58 19.265625 57.296875 16.734375 56.125 14.625 L 54.875 12.3125 L 53 14.1875 L 44.375 22.75 L 41.25 19.625 L 49.8125 11 L 51.6875 9.125 L 49.375 7.875 C 47.265625 6.703125 44.734375 6 42 6 Z M 42 10 C 42.96875 10 43.695313 10.414063 44.5625 10.625 L 35.5625 19.625 L 37 21 L 43 27 L 44.375 28.4375 L 53.375 19.4375 C 53.585938 20.304688 54 21.03125 54 22 C 54 28.742188 48.742188 34 42 34 C 41.203125 34 40.554688 34 40.0625 33.875 L 39 33.5625 L 20.375 52.1875 C 17.914063 54.648438 14.273438 54.648438 11.8125 52.1875 L 11.75 52.125 C 9.351563 49.664063 9.367188 46.070313 11.8125 43.625 L 30.4375 25 L 30.125 23.9375 C 30 23.445313 30 22.796875 30 22 C 30 15.257813 35.257813 10 42 10 Z "/>
</g>
</svg>
