<?xml version="1.0" encoding="UTF-8"?>
<svg xmlns="http://www.w3.org/2000/svg" xmlns:xlink="http://www.w3.org/1999/xlink" width="96pt" height="96pt" viewBox="0 0 96 96" version="1.1">
<g id="surface1">
<path style=" stroke:none;fill-rule:nonzero;fill:#58B8FE;fill-opacity:1;" d="M 18 9 L 18 87 L 78 87 L 78 40.3125 L 83.15625 35.15625 L 84 34.21875 L 84 9 Z M 24 15 L 66 15 L 66 34.21875 L 66.84375 35.15625 L 72 40.3125 L 72 81 L 24 81 Z M 72 15 L 78 15 L 78 31.6875 L 75 34.6875 L 72 31.6875 Z M 33 30 L 33 69 L 63 69 L 63 42.28125 L 62.15625 41.34375 L 51.65625 30.84375 L 50.71875 30 Z M 39 36 L 48 36 L 48 45 L 57 45 L 57 63 L 39 63 Z "/>
</g>
</svg>
