<?xml version="1.0" encoding="UTF-8"?>
<svg xmlns="http://www.w3.org/2000/svg" xmlns:xlink="http://www.w3.org/1999/xlink" width="52pt" height="52pt" viewBox="0 0 52 52" version="1.1">
<g id="surface1">
<path style=" stroke:none;fill-rule:nonzero;fill:#58B8FE;fill-opacity:1;" d="M 37.3125 4.4375 C 37.09375 4.429688 36.882813 4.453125 36.6875 4.5625 C 36.289063 4.773438 36.0625 5.171875 36.0625 5.625 L 36.0625 10.875 C 36.0625 10.875 1.875 11.6875 1.4375 12 C 0.796875 12.453125 0.375 12.773438 0.375 14 C 0.375 15.226563 0.796875 15.609375 1.4375 16.0625 C 1.875 16.375 36.0625 16.9375 36.0625 16.9375 L 36.0625 22.3125 C 36.0625 22.765625 36.289063 23.164063 36.6875 23.375 C 37.085938 23.585938 37.5625 23.5625 37.9375 23.3125 C 42.773438 20.046875 51.390625 14.96875 51.5625 14.75 C 51.742188 14.53125 51.875 14.273438 51.875 14 C 51.875 13.726563 51.742188 13.476563 51.5625 13.25 C 51.390625 13.03125 42.773438 7.890625 37.9375 4.625 C 37.75 4.5 37.53125 4.445313 37.3125 4.4375 Z M 14.6875 28.5 C 14.46875 28.507813 14.25 28.5625 14.0625 28.6875 C 9.226563 31.953125 0.609375 37.03125 0.4375 37.25 C 0.257813 37.46875 0.125 37.726563 0.125 38 C 0.125 38.273438 0.257813 38.523438 0.4375 38.75 C 0.609375 38.96875 9.226563 44.109375 14.0625 47.375 C 14.4375 47.632813 14.914063 47.648438 15.3125 47.4375 C 15.710938 47.226563 15.9375 46.828125 15.9375 46.375 L 15.9375 41.125 C 15.9375 41.125 50.125 40.3125 50.5625 40 C 51.203125 39.546875 51.625 39.226563 51.625 38 C 51.625 36.773438 51.203125 36.390625 50.5625 35.9375 C 50.125 35.625 15.9375 35.0625 15.9375 35.0625 L 15.9375 29.6875 C 15.9375 29.234375 15.710938 28.835938 15.3125 28.625 C 15.117188 28.515625 14.90625 28.492188 14.6875 28.5 Z "/>
</g>
</svg>
