<?xml version="1.0" encoding="UTF-8"?>
<svg xmlns="http://www.w3.org/2000/svg" xmlns:xlink="http://www.w3.org/1999/xlink" width="64pt" height="64pt" viewBox="0 0 64 64" version="1.1">
<g id="surface1">
<path style=" stroke:none;fill-rule:nonzero;fill:#FFFFFF;fill-opacity:1;" d="M 30 8 L 30 18 L 34 18 L 34 12.375 C 44.078125 13.414063 52 21.640625 52 32 C 52 43.070313 43.070313 52 32 52 C 20.929688 52 12 43.070313 12 32 C 12 25.570313 14.992188 19.851563 19.6875 16.1875 L 17.25 13.0625 C 11.617188 17.453125 8 24.3125 8 32 C 8 45.234375 18.765625 56 32 56 C 45.234375 56 56 45.234375 56 32 C 56 18.765625 45.234375 8 32 8 Z M 21.4375 18.5625 L 18.5625 21.4375 L 30.5625 33.4375 C 30.921875 33.796875 31.445313 34 32 34 C 33.101563 34 34 33.101563 34 32 C 34 31.445313 33.796875 30.921875 33.4375 30.5625 Z "/>
</g>
</svg>
