<?xml version="1.0" encoding="UTF-8"?>
<svg xmlns="http://www.w3.org/2000/svg" xmlns:xlink="http://www.w3.org/1999/xlink" width="40pt" height="40pt" viewBox="0 0 40 40" version="1.1">
<g id="surface1">
<path style=" stroke:none;fill-rule:nonzero;fill:#BAE0BD;fill-opacity:1;" d="M 20 38.5 C 9.800781 38.5 1.5 30.199219 1.5 20 C 1.5 9.800781 9.800781 1.5 20 1.5 C 30.199219 1.5 38.5 9.800781 38.5 20 C 38.5 30.199219 30.199219 38.5 20 38.5 Z "/>
<path style=" stroke:none;fill-rule:nonzero;fill:#5E9C76;fill-opacity:1;" d="M 20 2 C 29.925781 2 38 10.074219 38 20 C 38 29.925781 29.925781 38 20 38 C 10.074219 38 2 29.925781 2 20 C 2 10.074219 10.074219 2 20 2 M 20 1 C 9.507813 1 1 9.507813 1 20 C 1 30.492188 9.507813 39 20 39 C 30.492188 39 39 30.492188 39 20 C 39 9.507813 30.492188 1 20 1 Z "/>
<path style=" stroke:none;fill-rule:nonzero;fill:#45805B;fill-opacity:1;" d="M 17.023438 15.136719 C 17.023438 14.023438 18.023438 13.0625 20.074219 13.0625 C 22.398438 13.0625 24.074219 13.722656 25.375 14.511719 L 25.375 10.753906 C 24.40625 10.214844 22.945313 9.898438 20.988281 9.808594 L 20.988281 7.273438 L 18.957031 7.273438 L 18.957031 9.863281 C 17.261719 10.027344 15.894531 10.625 14.867188 11.652344 C 13.839844 12.675781 13.320313 13.917969 13.320313 15.371094 C 13.320313 21.128906 22.980469 21.304688 22.980469 24.460938 C 22.980469 25.582031 21.574219 26.449219 20.007813 26.449219 C 16.796875 26.449219 14.234375 25.089844 13.699219 24.65625 L 13.699219 28.511719 C 15.320313 29.355469 17.074219 29.78125 18.957031 29.789063 L 18.957031 32.726563 L 20.988281 32.726563 L 20.988281 29.707031 C 22.816406 29.503906 24.222656 28.929688 25.207031 27.988281 C 26.1875 27.046875 26.679688 25.804688 26.679688 24.265625 C 26.679688 18.121094 17.023438 18.589844 17.023438 15.136719 Z "/>
</g>
</svg>
