<?xml version="1.0" encoding="UTF-8"?>
<svg xmlns="http://www.w3.org/2000/svg" xmlns:xlink="http://www.w3.org/1999/xlink" width="100pt" height="100pt" viewBox="0 0 100 100" version="1.1">
<g id="surface1">
<path style=" stroke:none;fill-rule:nonzero;fill:#FFFFFF;fill-opacity:1;" d="M 50 6.25 C 43.140625 6.25 37.5 11.890625 37.5 18.75 C 37.5 22.167969 38.890625 25.292969 41.164063 27.5625 C 41.164063 27.5625 41.164063 27.589844 41.164063 27.589844 C 39.769531 28.46875 38.550781 29.589844 37.453125 30.859375 C 37.257813 24.171875 31.738281 18.75 25 18.75 C 18.140625 18.75 12.5 24.390625 12.5 31.25 C 12.5 34.59375 13.867188 37.648438 16.015625 39.894531 C 10.230469 43.089844 6.25 49.195313 6.25 56.25 L 12.5 56.25 C 12.5 49.316406 18.066406 43.75 25 43.75 C 27.832031 43.75 30.394531 44.679688 32.496094 46.242188 L 37.5 50 L 37.5 43.75 C 37.5 36.816406 43.066406 31.25 50 31.25 C 56.933594 31.25 62.5 36.816406 62.5 43.75 L 62.5 50 L 67.503906 46.242188 C 69.605469 44.679688 72.167969 43.75 75 43.75 C 81.933594 43.75 87.5 49.316406 87.5 56.25 L 93.75 56.25 C 93.75 49.195313 89.769531 43.089844 83.984375 39.894531 C 86.132813 37.648438 87.5 34.59375 87.5 31.25 C 87.5 24.390625 81.859375 18.75 75 18.75 C 68.261719 18.75 62.746094 24.171875 62.523438 30.859375 C 61.449219 29.589844 60.230469 28.441406 58.839844 27.5625 C 61.109375 25.292969 62.5 22.167969 62.5 18.75 C 62.5 11.890625 56.859375 6.25 50 6.25 Z M 50 12.5 C 53.492188 12.5 56.25 15.257813 56.25 18.75 C 56.25 22.242188 53.492188 25 50 25 C 46.507813 25 43.75 22.242188 43.75 18.75 C 43.75 15.257813 46.507813 12.5 50 12.5 Z M 25 25 C 28.492188 25 31.25 27.757813 31.25 31.25 C 31.25 34.742188 28.492188 37.5 25 37.5 C 21.507813 37.5 18.75 34.742188 18.75 31.25 C 18.75 27.757813 21.507813 25 25 25 Z M 75 25 C 78.492188 25 81.25 27.757813 81.25 31.25 C 81.25 34.742188 78.492188 37.5 75 37.5 C 71.507813 37.5 68.75 34.742188 68.75 31.25 C 68.75 27.757813 71.507813 25 75 25 Z M 31.25 50 C 24.390625 50 18.75 55.640625 18.75 62.5 C 18.75 65.84375 20.117188 68.898438 22.265625 71.144531 C 16.480469 74.339844 12.5 80.445313 12.5 87.5 L 18.75 87.5 C 18.75 80.566406 24.316406 75 31.25 75 C 38.183594 75 43.75 80.566406 43.75 87.5 L 50 87.5 C 50 80.445313 46.019531 74.339844 40.234375 71.144531 C 42.382813 68.898438 43.75 65.84375 43.75 62.5 C 43.75 55.640625 38.109375 50 31.25 50 Z M 50 87.5 L 56.25 87.5 C 56.25 80.566406 61.816406 75 68.75 75 C 75.683594 75 81.25 80.566406 81.25 87.5 L 87.5 87.5 C 87.5 80.445313 83.519531 74.339844 77.734375 71.144531 C 79.882813 68.898438 81.25 65.84375 81.25 62.5 C 81.25 55.640625 75.609375 50 68.75 50 C 61.890625 50 56.25 55.640625 56.25 62.5 C 56.25 65.84375 57.617188 68.898438 59.765625 71.144531 C 53.980469 74.339844 50 80.445313 50 87.5 Z M 31.25 56.25 C 34.742188 56.25 37.5 59.007813 37.5 62.5 C 37.5 65.992188 34.742188 68.75 31.25 68.75 C 27.757813 68.75 25 65.992188 25 62.5 C 25 59.007813 27.757813 56.25 31.25 56.25 Z M 68.75 56.25 C 72.242188 56.25 75 59.007813 75 62.5 C 75 65.992188 72.242188 68.75 68.75 68.75 C 65.257813 68.75 62.5 65.992188 62.5 62.5 C 62.5 59.007813 65.257813 56.25 68.75 56.25 Z "/>
</g>
</svg>
