<?xml version="1.0" encoding="UTF-8"?>
<svg xmlns="http://www.w3.org/2000/svg" xmlns:xlink="http://www.w3.org/1999/xlink" width="500pt" height="500pt" viewBox="0 0 500 500" version="1.1">
<g id="surface1">
<path style=" stroke:none;fill-rule:nonzero;fill:#58B8FE;fill-opacity:1;" d="M 250 0 C 112.03125 0 0 112.03125 0 250 C 0 387.96875 112.03125 500 250 500 C 387.96875 500 500 387.96875 500 250 C 500 112.03125 387.96875 0 250 0 Z M 250 20 C 377.148438 20 480 122.851563 480 250 C 480 316.757813 451.5625 376.757813 406.25 418.75 C 368.476563 391.523438 311.171875 387.03125 299.375 355.3125 C 297.929688 339.179688 298.4375 327.851563 298.4375 313.125 C 305.742188 309.296875 318.710938 285 320.9375 264.375 C 326.679688 263.90625 335.78125 258.359375 338.4375 236.25 C 339.882813 224.375 334.101563 217.734375 330.625 215.625 C 339.960938 187.539063 359.609375 100.546875 295 91.5625 C 288.359375 79.882813 271.210938 74.0625 249.0625 74.0625 C 160.507813 75.703125 149.960938 140.9375 169.375 215.625 C 165.9375 217.734375 160.15625 224.375 161.5625 236.25 C 164.21875 258.359375 173.320313 263.90625 179.0625 264.375 C 181.25 285 194.882813 309.296875 202.1875 313.125 C 202.1875 327.851563 202.695313 339.179688 201.25 355.3125 C 189.414063 387.109375 131.679688 391.40625 93.75 418.75 C 48.4375 376.757813 20 316.757813 20 250 C 20 122.851563 122.851563 20 250 20 Z "/>
</g>
</svg>
