<?xml version="1.0" encoding="UTF-8"?>
<svg xmlns="http://www.w3.org/2000/svg" xmlns:xlink="http://www.w3.org/1999/xlink" width="52pt" height="52pt" viewBox="0 0 52 52" version="1.1">
<g id="surface1">
<path style=" stroke:none;fill-rule:nonzero;fill:#FBCE00;fill-opacity:1;" d="M 26 2 C 12.765625 2 2 12.765625 2 26 C 2 39.234375 12.765625 50 26 50 C 39.234375 50 50 39.234375 50 26 C 50 12.765625 39.234375 2 26 2 Z M 26 6 C 37.070313 6 46 14.929688 46 26 C 46 37.070313 37.070313 46 26 46 C 14.929688 46 6 37.070313 6 26 C 6 14.929688 14.929688 6 26 6 Z M 28 14 L 16 26 L 28 38 L 34 38 L 22 26 L 34 14 Z "/>
</g>
</svg>
